/* XPM */
static char *result[] = {
/* columns rows colors chars-per-pixel */
"64 64 18 1 ",
"  c black",
". c #503016",
"X c #79403F",
"o c #403040",
"O c #384040",
"+ c #89283F",
"@ c #C13935",
"# c #895024",
"$ c #B15046",
"% c #E9715D",
"& c #C99800",
"* c #D9A075",
"= c #3F6889",
"- c #9890B1",
"; c #F9D0B7",
": c #B8B0D1",
"> c #E8E8F9",
", c #f701eb",
/* pixels */
",,,,,,,,,,,,,,,,,,,,,,,,,,,,,,,,,,,,,,,,,,,,,,,,,,,,,,,,,,,,,,,,",
",,,,,,,,,,,,,,,,,,,,,,,,,,,,,,,,,,,,,,,,,,,,,,,,,,,,,,,,,,,,,,,,",
",,,,,,,,,,,,,,,,,,,,,,,,,,,,,,,,,,,,,,,,,,,,,,,,,,,,,,,,,,,,,,,,",
",,,,,,,,,,,,,,,,,,,,,,,,,,,,,,,,,,,,,,,,,,,,,,,,,,,,,,,,,,,,,,,,",
",,,,,,,,,,,,,,,,,,,,,,,,,,,,,,,,,,,,,,,,,,,,,,,,,,,,,,,,,,,,,,,,",
",,,,,,,,,,,,,,,,,,,,,,,,,,,,,,,,,,,,,,,,,,,,,,,,,,,,,,,,,,,,,,,,",
",,,,,,,,,,,,,,,,,,,,,,,,,,,,,,,,,,,,,,,,,,,,,,,,,,,,,,,,,,,,,,,,",
",,,,,,,,,,,,,,,,,,,,,,,,,,,,,,,,,,,,,,,,,,,,,,,,,,,,,,,,,,,,,,,,",
",,,,,,,,,,,,,,,,,,,,,,,,,,,,,,,,,,,,,,,,,,,,,,,,,,,,,,,,,,,,,,,,",
",,,,,,,,,,,,,,,,,,,,,,,,,,oooooooooooooo,,,,,,,,,,,,,,,,,,,,,,,,",
",,,,,,,,,,,,,,,,,,,,,,,,,,oooooooooooooo,,,,,,,,,,,,,,,,,,,,,,,,",
",,,,,,,,,,,,,,,,,,,,,,,,oo$$%%%%%%%%%%%%oooo,,,,,,,,,,,,,,,,,,,,",
",,,,,,,,,,,,,,,,,,,,,,,,oo$$%%%%%%%%%%%%oooo,,,,,,,,,,,,,,,,,,,,",
",,,,,,,,,,,,,,,,,,,,,,oo$$%%%%%%%%%%%%%%%%$$oo,,,,,,,,,,,,,,,,,,",
",,,,,,,,,,,,,,,,,,,,,,oo$$%%%%%%%%%%%%%%%%$$oo,,,,,,,,,,,,,,,,,,",
",,,,,,,,,,,,,,,,,,,,,,oo%%%%%%%%%%%%%%%%%%%%oo,,,,,,,,,,,,,,,,,,",
",,,,,,,,,,,,,,,,,,,,,,oo%%%%%%%%%%%%%%%%%%%%oo,,,,,,,,,,,,,,,,,,",
",,,,,,,,,,,,,,,,,,,,oo::%%%%%%%%%%%%%%%%%%%%$$oo,,,,,,,,,,,,,,,,",
",,,,,,,,,,,,,,,,,,,,oo::%%%%%%%%%%%%%%%%%%%%$$oo,,,,,,,,,,,,,,,,",
",,,,,,,,,,,,,,,,,,oo==$$>>%%%%%%%%%%%%%%%%%%$$oo,,,,,,,,,,,,,,,,",
",,,,,,,,,,,,,,,,,,oo==$$>>%%%%%%%%%%%%%%%%%%$$oo,,,,,,,,,,,,,,,,",
",,,,,,,,,,,,,,,,oo>>>>$$>>$$%%%%%%%%%%%%%%$$$$oo,,,,,,,,,,,,,,,,",
",,,,,,,,,,,,,,,,oo>>>>$$>>$$%%%%%%%%%%%%%%$$$$oo,,,,,,,,,,,,,,,,",
",,,,,,,,,,,,,,,,oo>>>>::$$$$$$$$$$$$$$$$$$$$$$oo,,,,,,,,,,,,,,,,",
",,,,,,,,,,,,,,,,oo>>>>::$$$$$$$$$$$$$$$$$$$$$$oo,,,,,,,,,,,,,,,,",
",,,,,,,,,,,,,,,,oo::>>++$$$$$$$$$$$$$$$$$$$$$$oo,,,,,,,,,,,,,,,,",
",,,,,,,,,,,,,,,,oo::>>++$$$$$$$$$$$$$$$$$$$$$$oo,,,,,,,,,,,,,,,,",
",,,,,,,,,,,,,,,,,,oo::::++$$$$$$$$$$$$$$$$$$oo..,,,,,,,,,,,,,,,,",
",,,,,,,,,,,,,,,,,,oo::::++$$$$$$$$$$$$$$$$$$oo..,,,,,,,,,,,,,,,,",
",,,,,,,,,,,,,,,,,,,,ooooOOoooooooooooooooooo##..,,,,,,,,,,,,,,,,",
",,,,,,,,,,,,,,,,,,,,ooooOOoooooooooooooooooo##..,,,,,,,,,,,,,,,,",
",,,,,,,,,,,,,,,,,,,,XXXX  --XX..##..########..,,,,,,,,,,,,,,,,,,",
",,,,,,,,,,,,,,,,,,,,XXXX  --XX..##..########..,,,,,,,,,,,,,,,,,,",
",,,,,,,,,,,,,,,,,,,,XX**  >>**..****..####..  ,,,,,,,,,,,,,,,,,,",
",,,,,,,,,,,,,,,,,,,,XX**  >>**..****..####..  ,,,,,,,,,,,,,,,,,,",
",,,,,,,,,,,,,,,,,,,,**;;;;;;;;******..####..,,,,,,,,,,,,,,,,,,,,",
",,,,,,,,,,,,,,,,,,,,**;;;;;;;;******..####..,,,,,,,,,,,,,,,,,,,,",
",,,,,,,,,,,,,,,,,,,,,,XX;;;;******..##    ,,,,,,,,,,,,,,,,,,,,,,",
",,,,,,,,,,,,,,,,,,,,,,XX;;;;******..##    ,,,,,,,,,,,,,,,,,,,,,,",
",,,,,,,,,,,,,,,,,,,,,,,,XXXXXX**......&&..,,,,,,,,,,,,,,,,,,,,,,",
",,,,,,,,,,,,,,,,,,,,,,,,XXXXXX**......&&..,,,,,,,,,,,,,,,,,,,,,,",
",,,,,,,,,,,,,,,,,,,,,,,,,,++::::&&##&&&&&&..,,,,,,,,,,,,,,,,,,,,",
",,,,,,,,,,,,,,,,,,,,,,,,,,++::::&&##&&&&&&..,,,,,,,,,,,,,,,,,,,,",
",,,,,,,,,,,,,,,,,,,,,,,,OO@@  OOOO  &&&&##  ,,,,,,,,,,,,,,,,,,,,",
",,,,,,,,,,,,,,,,,,,,,,,,OO@@  OOOO  &&&&##  ,,,,,,,,,,,,,,,,,,,,",
",,,,,,,,,,,,,,,,,,,,,,,,OO  ;;;;OO  ####&&  ,,,,,,,,,,,,,,,,,,,,",
",,,,,,,,,,,,,,,,,,,,,,,,OO  ;;;;OO  ####&&  ,,,,,,,,,,,,,,,,,,,,",
",,,,,,,,,,,,,,,,,,,,,,,,OO  ****OOOO  &&##  ,,,,,,,,,,,,,,,,,,,,",
",,,,,,,,,,,,,,,,,,,,,,,,OO  ****OOOO  &&##  ,,,,,,,,,,,,,,,,,,,,",
",,,,,,,,,,,,,,,,,,,,,,,,,,OO    ====      ,,,,,,,,,,,,,,,,,,,,,,",
",,,,,,,,,,,,,,,,,,,,,,,,,,OO    ====      ,,,,,,,,,,,,,,,,,,,,,,",
",,,,,,,,,,,,,,,,,,,,,,,,,,  @@@@@@++  ,,,,,,,,,,,,,,,,,,,,,,,,,,",
",,,,,,,,,,,,,,,,,,,,,,,,,,  @@@@@@++  ,,,,,,,,,,,,,,,,,,,,,,,,,,",
",,,,,,,,,,,,,,,,,,,,,,,,,,,,        ,,,,,,,,,,,,,,,,,,,,,,,,,,,,",
",,,,,,,,,,,,,,,,,,,,,,,,,,,,        ,,,,,,,,,,,,,,,,,,,,,,,,,,,,",
",,,,,,,,,,,,,,,,,,,,,,,,,,,,,,,,,,,,,,,,,,,,,,,,,,,,,,,,,,,,,,,,",
",,,,,,,,,,,,,,,,,,,,,,,,,,,,,,,,,,,,,,,,,,,,,,,,,,,,,,,,,,,,,,,,",
",,,,,,,,,,,,,,,,,,,,,,,,,,,,,,,,,,,,,,,,,,,,,,,,,,,,,,,,,,,,,,,,",
",,,,,,,,,,,,,,,,,,,,,,,,,,,,,,,,,,,,,,,,,,,,,,,,,,,,,,,,,,,,,,,,",
",,,,,,,,,,,,,,,,,,,,,,,,,,,,,,,,,,,,,,,,,,,,,,,,,,,,,,,,,,,,,,,,",
",,,,,,,,,,,,,,,,,,,,,,,,,,,,,,,,,,,,,,,,,,,,,,,,,,,,,,,,,,,,,,,,",
",,,,,,,,,,,,,,,,,,,,,,,,,,,,,,,,,,,,,,,,,,,,,,,,,,,,,,,,,,,,,,,,",
",,,,,,,,,,,,,,,,,,,,,,,,,,,,,,,,,,,,,,,,,,,,,,,,,,,,,,,,,,,,,,,,",
",,,,,,,,,,,,,,,,,,,,,,,,,,,,,,,,,,,,,,,,,,,,,,,,,,,,,,,,,,,,,,,,"
};
