/* XPM */
static char *result[] = {
/* columns rows colors chars-per-pixel */
"64 64 15 1 ",
"  c black",
". c #503016",
"X c #79403F",
"o c #403040",
"O c #384040",
"+ c #89283F",
"@ c #C13935",
"# c #895024",
"$ c #B15046",
"% c #E9715D",
"& c #C99800",
"* c #D9A075",
"= c #3F6889",
"- c #F9D0B7",
"; c #f701eb",
/* pixels */
";;;;;;;;;;;;;;;;;;;;;;;;;;;;;;;;;;;;;;;;;;;;;;;;;;;;;;;;;;;;;;;;",
";;;;;;;;;;;;;;;;;;;;;;;;;;;;;;;;;;;;;;;;;;;;;;;;;;;;;;;;;;;;;;;;",
";;;;;;;;;;;;;;;;;;;;;;;;;;;;;;;;;;;;;;;;;;;;;;;;;;;;;;;;;;;;;;;;",
";;;;;;;;;;;;;;;;;;;;;;;;;;;;;;;;;;;;;;;;;;;;;;;;;;;;;;;;;;;;;;;;",
";;;;;;;;;;;;;;;;;;;;;;;;;;;;;;;;;;;;;;;;;;;;;;;;;;;;;;;;;;;;;;;;",
";;;;;;;;;;;;;;;;;;;;;;;;;;;;;;;;;;;;;;;;;;;;;;;;;;;;;;;;;;;;;;;;",
";;;;;;;;;;;;;;;;;;;;;;;;;;;;;;;;;;;;;;;;;;;;;;;;;;;;;;;;;;;;;;;;",
";;;;;;;;;;;;;;;;;;;;;;;;;;;;;;;;;;;;;;;;;;;;;;;;;;;;;;;;;;;;;;;;",
";;;;;;;;;;;;;;;;;;;;;;;;;;;;;;;;;;;;;;;;;;;;;;;;;;;;;;;;;;;;;;;;",
";;;;;;;;;;;;;;;;;;;;;;;;;oooooooooooooo;;;;;;;;;;;;;;;;;;;;;;;;;",
";;;;;;;;;;;;;;;;;;;;;;;;;oooooooooooooo;;;;;;;;;;;;;;;;;;;;;;;;;",
";;;;;;;;;;;;;;;;;;;;;oooo%%%%%%%%%%%%%%oooo;;;;;;;;;;;;;;;;;;;;;",
";;;;;;;;;;;;;;;;;;;;;oooo%%%%%%%%%%%%%%oooo;;;;;;;;;;;;;;;;;;;;;",
";;;;;;;;;;;;;;;;;;;oo$$%%%%%%%%%%%%%%%%%%$$oo;;;;;;;;;;;;;;;;;;;",
";;;;;;;;;;;;;;;;;;;oo$$%%%%%%%%%%%%%%%%%%$$oo;;;;;;;;;;;;;;;;;;;",
";;;;;;;;;;;;;;;;;;;oo%%%%%%%%%%%%%%%%%%%%%%oo;;;;;;;;;;;;;;;;;;;",
";;;;;;;;;;;;;;;;;;;oo%%%%%%%%%%%%%%%%%%%%%%oo;;;;;;;;;;;;;;;;;;;",
";;;;;;;;;;;;;;;;;oo$$%%%%%%%%%%%%%%%%%%%%%%$$oo;;;;;;;;;;;;;;;;;",
";;;;;;;;;;;;;;;;;oo$$%%%%%%%%%%%%%%%%%%%%%%$$oo;;;;;;;;;;;;;;;;;",
";;;;;;;;;;;;;;;;;oo$$%%%%%%%%%%%%%%%%%%%%%%$$oo;;;;;;;;;;;;;;;;;",
";;;;;;;;;;;;;;;;;oo$$%%%%%%%%%%%%%%%%%%%%%%$$oo;;;;;;;;;;;;;;;;;",
";;;;;;;;;;;;;;;;;oo$$$$%%%%%%%%%%%%%%%%%%$$$$oo;;;;;;;;;;;;;;;;;",
";;;;;;;;;;;;;;;;;oo$$$$%%%%%%%%%%%%%%%%%%$$$$oo;;;;;;;;;;;;;;;;;",
";;;;;;;;;;;;;;;;;oo$$$$$$$$%%%%%%%%%%$$$$$$$$oo;;;;;;;;;;;;;;;;;",
";;;;;;;;;;;;;;;;;oo$$$$$$$$%%%%%%%%%%$$$$$$$$oo;;;;;;;;;;;;;;;;;",
";;;;;;;;;;;;;;;..oooo$$$$$$$$OOOOOO$$$$$$$$oooo..;;;;;;;;;;;;;;;",
";;;;;;;;;;;;;;;..oooo$$$$$$$$OOOOOO$$$$$$$$oooo..;;;;;;;;;;;;;;;",
";;;;;;;;;;;;;;;  **oo$$$$$$OOOOOOOOOO$$$$$$oo**  ;;;;;;;;;;;;;;;",
";;;;;;;;;;;;;;;  **oo$$$$$$OOOOOOOOOO$$$$$$oo**  ;;;;;;;;;;;;;;;",
";;;;;;;;;;;;;;;  **..oooo$$$$$$$$$$$$$$oooo..**  ;;;;;;;;;;;;;;;",
";;;;;;;;;;;;;;;  **..oooo$$$$$$$$$$$$$$oooo..**  ;;;;;;;;;;;;;;;",
";;;;;;;;;;;;;;;;;  ..##..oooooooooooooo..##..  ;;;;;;;;;;;;;;;;;",
";;;;;;;;;;;;;;;;;  ..##..oooooooooooooo..##..  ;;;;;;;;;;;;;;;;;",
";;;;;;;;;;;;;;;;;;;  ..##################..  ;;;;;;;;;;;;;;;;;;;",
";;;;;;;;;;;;;;;;;;;  ..##################..  ;;;;;;;;;;;;;;;;;;;",
";;;;;;;;;;;;;;;;;;;;;  ..##############..  ;;;;;;;;;;;;;;;;;;;;;",
";;;;;;;;;;;;;;;;;;;;;  ..##############..  ;;;;;;;;;;;;;;;;;;;;;",
";;;;;;;;;;;;;;;;;;;;;OO    ..######..    OO;;;;;;;;;;;;;;;;;;;;;",
";;;;;;;;;;;;;;;;;;;;;OO    ..######..    OO;;;;;;;;;;;;;;;;;;;;;",
";;;;;;;;;;;;;;;;;;;  OOOO&&..........&&OOOO  ;;;;;;;;;;;;;;;;;;;",
";;;;;;;;;;;;;;;;;;;  OOOO&&..........&&OOOO  ;;;;;;;;;;;;;;;;;;;",
";;;;;;;;;;;;;;;;;  OOOO++&&  &&&&&&  &&++OOOO  ;;;;;;;;;;;;;;;;;",
";;;;;;;;;;;;;;;;;  OOOO++&&  &&&&&&  &&++OOOO  ;;;;;;;;;;;;;;;;;",
";;;;;;;;;;;;;;;XX--**  @@  &&&&&&&&&&  @@  **--XX;;;;;;;;;;;;;;;",
";;;;;;;;;;;;;;;XX--**  @@  &&&&&&&&&&  @@  **--XX;;;;;;;;;;;;;;;",
";;;;;;;;;;;;;;;XX----  ++..##&&&&&&##..++  ----XX;;;;;;;;;;;;;;;",
";;;;;;;;;;;;;;;XX----  ++..##&&&&&&##..++  ----XX;;;;;;;;;;;;;;;",
";;;;;;;;;;;;;;;;;XXXXOO==..&&######&&..==OOXXXX;;;;;;;;;;;;;;;;;",
";;;;;;;;;;;;;;;;;XXXXOO==..&&######&&..==OOXXXX;;;;;;;;;;;;;;;;;",
";;;;;;;;;;;;;;;;;;;;;  OO==  &&&&&&  ==OO  ;;;;;;;;;;;;;;;;;;;;;",
";;;;;;;;;;;;;;;;;;;;;  OO==  &&&&&&  ==OO  ;;;;;;;;;;;;;;;;;;;;;",
";;;;;;;;;;;;;;;;;;;;;  @@@@OOOOOOOOOO@@@@  ;;;;;;;;;;;;;;;;;;;;;",
";;;;;;;;;;;;;;;;;;;;;  @@@@OOOOOOOOOO@@@@  ;;;;;;;;;;;;;;;;;;;;;",
";;;;;;;;;;;;;;;;;;;;;;;    ;;;;;;;;;;    ;;;;;;;;;;;;;;;;;;;;;;;",
";;;;;;;;;;;;;;;;;;;;;;;    ;;;;;;;;;;    ;;;;;;;;;;;;;;;;;;;;;;;",
";;;;;;;;;;;;;;;;;;;;;;;;;;;;;;;;;;;;;;;;;;;;;;;;;;;;;;;;;;;;;;;;",
";;;;;;;;;;;;;;;;;;;;;;;;;;;;;;;;;;;;;;;;;;;;;;;;;;;;;;;;;;;;;;;;",
";;;;;;;;;;;;;;;;;;;;;;;;;;;;;;;;;;;;;;;;;;;;;;;;;;;;;;;;;;;;;;;;",
";;;;;;;;;;;;;;;;;;;;;;;;;;;;;;;;;;;;;;;;;;;;;;;;;;;;;;;;;;;;;;;;",
";;;;;;;;;;;;;;;;;;;;;;;;;;;;;;;;;;;;;;;;;;;;;;;;;;;;;;;;;;;;;;;;",
";;;;;;;;;;;;;;;;;;;;;;;;;;;;;;;;;;;;;;;;;;;;;;;;;;;;;;;;;;;;;;;;",
";;;;;;;;;;;;;;;;;;;;;;;;;;;;;;;;;;;;;;;;;;;;;;;;;;;;;;;;;;;;;;;;",
";;;;;;;;;;;;;;;;;;;;;;;;;;;;;;;;;;;;;;;;;;;;;;;;;;;;;;;;;;;;;;;;",
";;;;;;;;;;;;;;;;;;;;;;;;;;;;;;;;;;;;;;;;;;;;;;;;;;;;;;;;;;;;;;;;"
};
