/* XPM */
static char *_7afe5a3d2134c01f7fc5fac3caf8646GuceckuuTcyKkchl[] = {
/* columns rows colors chars-per-pixel */
"85 85 197 2 ",
"   c #f701eb",
".  c #2E1A0F",
"X  c #341D11",
"o  c #3D230D",
"O  c #3D2314",
"+  c #2A2927",
"@  c #2F2E2C",
"#  c #2D3331",
"$  c #313734",
"%  c #363B3A",
"&  c #3A3E3C",
"*  c #41250E",
"=  c #4D2D0F",
"-  c #46280F",
";  c #432617",
":  c #4D2D11",
">  c #4B2B19",
",  c #432715",
"<  c #532E16",
"1  c #532F19",
"2  c #553313",
"3  c #5A3514",
"4  c #5F3816",
"5  c #5D311A",
"6  c #54311B",
"7  c #502F0F",
"8  c #613917",
"9  c #64341D",
"0  c #69371F",
"q  c #663D1A",
"w  c #6C3C1E",
"e  c #703B1F",
"r  c #403F3D",
"t  c #563020",
"y  c #6D3722",
"u  c #6E3921",
"i  c #743C23",
"p  c #7A3D26",
"a  c #7C3E28",
"s  c #3D413F",
"d  c #6D411C",
"f  c #6C4017",
"g  c #72451A",
"h  c #7D471F",
"j  c #7C4B1A",
"k  c #714417",
"l  c #6F4120",
"z  c #744323",
"x  c #7C4224",
"c  c #7D4B21",
"v  c #764128",
"b  c #7D4228",
"n  c #7F4C28",
"m  c #3D4341",
"M  c #414542",
"N  c #454945",
"B  c #4A4947",
"V  c #464A48",
"C  c #494E49",
"Z  c #4E534E",
"A  c #51514C",
"S  c #4F5350",
"D  c #525752",
"F  c #545954",
"G  c #595F59",
"H  c #595D56",
"J  c #5B605B",
"K  c #62655F",
"L  c #626761",
"P  c #656962",
"I  c #696D65",
"U  c #696E68",
"Y  c #6E726A",
"T  c #6C7167",
"R  c #73766B",
"E  c #75796E",
"W  c #787B6F",
"Q  c #747474",
"!  c #767C72",
"~  c #7A7E75",
"^  c #7B7E73",
"/  c #834E1D",
"(  c #86521E",
")  c #834426",
"_  c #824C24",
"`  c #834329",
"'  c #8A462B",
"]  c #834B2C",
"[  c #8D4B2B",
"{  c #944D2D",
"}  c #845021",
"|  c #895228",
" . c #945B25",
".. c #95522D",
"X. c #9B542E",
"o. c #9C5C2C",
"O. c #945829",
"+. c #944A32",
"@. c #984E31",
"#. c #9C4B39",
"$. c #9C5331",
"%. c #9E5A32",
"&. c #955533",
"*. c #8D4F32",
"=. c #A25C2F",
"-. c #A15531",
";. c #A45B34",
":. c #AA5D35",
">. c #A5533B",
",. c #AC5C3B",
"<. c #AB553E",
"1. c #B15E3A",
"2. c #A3652E",
"3. c #A66133",
"4. c #AC6336",
"5. c #AB6A33",
"6. c #AD6439",
"7. c #B26437",
"8. c #B46935",
"9. c #B3653A",
"0. c #B56B3B",
"q. c #BB6C3B",
"w. c #B86939",
"e. c #BD723C",
"r. c #B67236",
"t. c #C16F3F",
"y. c #C3753E",
"u. c #C57A3E",
"i. c #C97B3E",
"p. c #B65D42",
"a. c #BE6D43",
"s. c #B96342",
"d. c #BE7240",
"f. c #C36C42",
"g. c #C56848",
"h. c #C37441",
"j. c #C97643",
"k. c #C77A41",
"l. c #CC7D42",
"z. c #CA7449",
"x. c #D07F44",
"c. c #D47C4C",
"v. c #D67C4D",
"b. c #7D8176",
"n. c #7E8177",
"m. c #7E8279",
"M. c #7D837A",
"N. c #D28B3D",
"B. c #808276",
"V. c #82867D",
"C. c #81847A",
"Z. c #85887C",
"A. c #84887D",
"S. c #888B7F",
"D. c #CE8143",
"F. c #D28445",
"G. c #D68944",
"H. c #DA8D46",
"J. c #D68548",
"K. c #D9854B",
"L. c #D78848",
"P. c #DA8A4A",
"I. c #DC9146",
"U. c #DE9248",
"Y. c #DA9744",
"T. c #DE8551",
"R. c #E18D4E",
"E. c #E29B46",
"W. c #E3924D",
"Q. c #E49C4A",
"!. c #E4974A",
"~. c #E28C52",
"^. c #E08751",
"/. c #E59052",
"(. c #EA9A51",
"). c #E6A14B",
"_. c #E9A44D",
"`. c #ECAA4E",
"'. c #E4A147",
"]. c #E9A151",
"[. c #F0A755",
"{. c #F1A956",
"}. c #868A81",
"|. c #888E85",
" X c #8B9186",
".X c #8D928A",
"XX c #90968C",
"oX c #92998F",
"OX c #959C92",
"+X c #989F95",
"@X c #9BA298",
"#X c #99A096",
"$X c #A0A0A0",
"%X c #A9AEA5",
"&X c gray81",
"*X c #C3C3C3",
"=X c #EAEAEA",
/* pixels */
"                                                                        J J G G G G G G G G G G G                                                                         ",
"                                                                      J #X@X.X#XoXoXOX+X+XOX@X@X}.U                                                                       ",
"                                                                    m .X Xn.M.A.Z.V.C.C.~ ~ ! R ! V.S                                                                     ",
"                                                                    m .X! ~ m.}.^ ~ ^ C.~ Y Y U U P N                                                                     ",
"                                                                    s |.E ~ n.m.W ^ n.A.! L L P Y L m                                                                     ",
"                                                                    m R ! ~ ^ ! ^ b.n.C.! L P U R G                                                                       ",
"                                                                      J ^ ~ ! ! b.^ ~ V.! P I I T V                                                                       ",
"                                                                      D ^ ! R ^ n.Y b.M.! Y U L L m                                                                       ",
"                                                                      N b.R E n.b.U b.n.U Y Y ! ! m m                                                                     ",
"                                                                V F m M R Y b.M.E E n.B.U ! ! Y P N J G N                                                                 ",
"                                        Z A                 m |..X}.Y s J R ! W P L ^ n.M.M.M.M.J N OXoXOX}.F m             P M                                           ",
"                                      Z P M.I         s N |. Xb.M.! R s Z b.Y T U I ^ E U M.M.U H D XXE ! M..X|.F N       P XXM.M                                         ",
"                                    m |. Xb.P Z     m  X.XY b.b.T T Y m m U W ! R ! ! Y ! R M.Y Z Y .XE E K Y M.XXI B   P Z.Z.XXoXN                                       ",
"                                  L .Xb.b.M.b.P P M |. XM.Y Y U T U ! F s M. XM.^ }.V.C.C.~ M.! m V.M.Y Y T T U M..XZ K A.XXZ.B.Z.}.M                                     ",
"                                Z |.E E ! T M.P M.Z M.M.b.b.b.M.M.! ! L s M.b.M.m.n.m.~ ~ Q Q M.m |.! ! ! R R Y Y U M Z.XXZ.|.Z.B.b.m.M                                   ",
"                              N A.b.Y ! E Y Y E E P m b.M.V.b.b.b.E P E m U I Y m.~ ! n.6.M.U U S .XE Y W W U E W M D  XZ.Z.Z.Z.C.^ ! Y N                                 ",
"                            s Y |.R R ! M.b.! M.M.M.D D M.b.Y b.Y Y Y V m S J J G G J J J J J S m |.Y ! ! ! R b.F C oXB. XZ.|.Z.A.A.C.A.P                                 ",
"                              s T ~ P ! Y ! E ! U M.b.s L b.Y |.Y . O l l v &.%.&.l 3.s.%.%.v v v O O Y b.U ! R m M.S.b.Z.b.b.n.A.|.Z.Y M                                 ",
"                                N Y ! ^ ^ Y W R T b.M.L m Y U O i v &.&.%.%.3.p.%.l 5.a.p.%.3.6.s.%.v v O J U Z G OXn.Z.B.B.b.W ^ |.T M                                   ",
"                                  m P |.R b.Y Y b.b.b.M.m O > n %.&.&.%.,.%.%.3.p.l d.a.s.6.6.6.6.%.6.s.] b . C M.|.C.Z.B.M.A.n.A.T s                                     ",
"                                s J s J ~ ! ! ! M.Y b.C O > s.6.;.&.%.3.3.3.6.s.6.z D.k.a.a.a.0.a.3.6.6.a.l *.> G |.~ R n.|.C.V.G s R s                                   ",
"                                J S.Y V ! Y R I b.b.m O v l 5.s.6.3.3.6.a.a.a.e.d.z F.J.k.k.d.d.d.0.d.a.6.l d.] 1 M I R Y ~ }.J s XXR J                                   ",
"                              s .XA.A.F Z b.! U Y m > l 3.l 0.r.6.6.0.e.d.d.d.d.k.n H.T.F.z.D.k.D.d.d.d.d.l d.0.] 1 & G T R D M C.S.Z.R s                                 ",
"                            s |.M.b.W .Xs Z ! J m > z o.3.l d.a.e.r.e.h.k.k.D.D.D.n Q.P.L.F.J.D.F.k.D.D.d.l z.d.6.] 6 N Z N M .XC.R C.C.R s                               ",
"                            J S.b.b.T W L s s m > n %.o.6.z e.d.d.e.d.D.D.D.D.D.D.n ]./.P.J.L.D.F.D.F.T.D.n F.d.0.9.] 6 % s oXM.Z.|.|.C.R J                               ",
"                          N |.R ! R b.A.M.E s , z 3.3.2.5.c F.l.D.D.D.D.D.F.D.L.F. .{./.Y.J.P.F.L.F.F.P.D.n K.D.e.0.0.] > J ^ ^ B.n.M.M.B.R V                             ",
"                          J ^ R W b.A.! M.J O v 3.6.6.5.e.n F.F.D.D.D.F.L.L.L.L.L. .{./.U.P.L.J.L.F.Y.~.J.n ~.D.h.e.e.a.| , J b.E  XC.B.R R J                             ",
"                        V s Y R R ! ! ! Y X z %.3.0.0.r.d.n L.L.F.D.D.P.F.H.L.P.F. .{./.U.P.U.J.J.J.F.P.G.| ~.L.k.h.d.d.0.n O E b.Z.R R Z.Y s V                           ",
"                        Y J s J T R R .XJ * 3.%.6.0.e.u.D.g H.L.L.D.L.P.L.P.L.U.F.O.{./.Y.U.L.F.P.L.F.L.U.O.].L.D.k.k.d.0.5.v J R C.R Y G s G G                           ",
"                        }.}.M.J Z Y T W O d %.3.0.d.e.u.D. .U.P.L.F.F.U.L.U.P.P.U. .{./.L.L.L.F.J.F.D.L.H. .(.H.J.k.D.d.e.0.6.O J T J Z G m.R G                           ",
"                      Z ^ R Y S.XXJ Y J u  .6.5.d.k.D.u.D.c Y.P.L.D.L.U.L.P.P.P.J. .{.U.P.J.L.D.L.L.F.L.L. .G.P.L.D.k.k.d.e.0.n D A G XXC.T R T s                         ",
"                      }.R Y ^ T R S.J X | o.5.a.k.D.D.D.D. .Q.P.L.L.U.U.L.L.L.L.L. .{./.L.F.G.D.L.F.F.L.H. .G.U.F.D.D.D.r.r.0.] , G C.R Y ^ R R G                         ",
"                      T R b.R T R T U y O.o.0.e.D.D.F.F.F. .`.P.F.L.~.U.G.F.P.L.F. .{.U.F.F.L.D.G.F.F.L.P. .G.Y.D.D.D.D.e.e.r.r.t T Y R Y R b.R T                         ",
"                      R b.Y Y b.Y T J u 5.r.d.d.F.D.D.F.l. .`.L.L.U./.U.L.L.L.F.F. .{.U.J.F.F.D.F.D.F.L.P. .Y.Y.D.D.D.e.u.e.0.d.&.J Y T b.Y I b.R                         ",
"                      T b.T T T T R J &.5.r.k.k.l.D.D.J.F. .`.L.F.Y.U.~.F.L.F.L.F. .{.U.F.F.F.D.L.D.F.F.Y. .Y.U.D.D.D.D.D.D.r.r.&.J R Y T T R b.Y                         ",
"                    s b.T b.R b.R J * 5.0.r.h.k.F.F.F.H.J. ._.H.F.L.P.G.F.D.F.D.F. .{.U.J.J.F.D.F.P.F.U.P. .Y.U.L.D.D.D.D.d.0.0.k.2 J R b.R b.R R s                       ",
"                    s V m m s s m C q 0.d.h.D.F.F.L.L.P.L. .`.!.L.L.U.G.L.D.L.L.D. .{.~.J.U.F.F.L.P.P.U.U.O.Y.U.L.F.L.L.u.D.e.e.F.6 V s m & m m V s                       ",
"            s J R .X@X%X%X%X%X%X@Xm 4 y.D.J.D.D.K.I.P.H.P. .{./.L.L.P.D.L.D.F.F.G.| _.P.P.U.F.L.L.U.H.U.U. .Y.W.L.F.L.G.G.D.D.D.0.d s .X@X@X.X}.@X@X#X}.E R s             ",
"            s Y P Y b.U U Y T b.Y s j u.D.K.D.F.L.P.P.P.P. .{./.G.G.L.G.G.F.F.G.L.2._.T.L.U.L.U.L.U.P.U.P.O.]./.L.L.L.F.L.F.D.D.e.d s Y W ! E ~ }.n.E R ^ J s             ",
"            s |.R W b.I P L T b.! s j l.x.x.l.D.L.U.P.P.P. .{./.G.F.P.F.P.L.D.L.G.2._.~.P.U.J.U.L.U.P./.U.O.]./.L.F.L.F.L.D.D.D.h. .s R ! C.~ C.}.n.R T b.J s             ",
"            s @XM.M.Q M.U L I R R m j D.D.F.G.l.G.L.H.P.J. .`./.F.L.P.D.L.L.D.L.L.2.).Y.P.U.P.U.L.P.P.P.U. .`./.G.F.G.D.G.L.D.L.h. .s .XR ~ ~ C.V.! M.Q 6.J M             ",
"            s @XU Q M.M.|.M.R I R s j F.D.D.F.F.!.L.J.P.L. .{./.L.F.F.F.F.L.L.D.L.O.).H.L.H.U.U.L.J.L.P.P. .{./.L.D.F.D.L.G.D.L.F. .s .XT ! W ~ M.M.M.! M.G &             ",
"            s @XQ Q ~ C.V.M.M.R ! s j F.i.x.F.F.H.G.L.P.J. .`.R.F.F.F.G.D.F.F.D.G. .).U.L.H.~.U.F.G.H.P.L.| `./.F.G.G.D.L.D.L.L.!. .& @XU R E ^ M.M.! M.M.J &             ",
"            s }.U |.6.W M.M.M.R U s j F.D.F.F.l.W.F.J.F.J. .`./.F.F.F.F.D.L.D.L.P.| ).U.J.H./.U.G.L.F.P.G. .{.~.F.F.L.D.L.D.D.L.Q. .m @XR ^ ^ ^ M.! M.! M.J M             ",
"            s B.Y W ~ ~ ~ ~ ~ ~ R s j F.i.D.F.D.P.F.L.G.J. .`./.F.L.F.F.D.L.D.F.F. .).U.F.L.U./.P.J.F.J.L.O.`.~.F.F.D.D.L.D.D.L.Q. .s @X~ ~ ~ ~ ~ ! ! ! T J M             ",
"            m E I P I U P P R ^ R s j F.i.l.l.D.^.J.F.K.J. .`.~.D.D.D.F.D.F.D.D.J. .`.I.F.F.P.P.P.J.F.L.L. .`.~.D.F.F.D.L.D.D.D.`. .s .XE Q U I ! ! U P U D &             ",
"            s Y I L L P P P T R I s j i.u.j.F.l.P.F.F.L.F. .[.~.D.D.D.F.D.F.D.D.L. .`.Y.F.K.I.L.~.J.F.L.D. .{.~.D.D.D.D.L.D.D.L.`. .s .XE E Y U P U K K J D M             ",
"            m J G J G G G G J J G s j F.F.F.l.l.L.F.F.L.F. .[.~.D.D.D.D.D.D.F.D.L.l `.T.F.K.F.K.P.D.F.K.L.| {.T.D.D.D.D.F.F.D.L.`.d s J J J J J G J D D D N s             ",
"            m s s s s s M s s s s s k u.N.F.F.F.L.F.F.J.F. ._.H.D.D.F.l.D.F.F.i.J./ _.~.x.F.J.F.I.F.F.J.F. ._.H.D.F.D.D.F.F.l.J.`.j m s s s m s s m m & s s s             ",
"                    & R .X#X@X}.b.s j u.D.F.D.F.L.F.x.J.F.h _.H.F.i.l.l.l.D.F.D.J.h `.~.x.x.F.l.H.D.x.J.F.j ].H.i.l.l.l.D.D.l.F.`.c s R .X#X%X.XY &                       ",
"                    s }..X.X}.B.M.s c D.D.D.D.D.L.l.x.c.l._ _.^.D.l.l.k.l.D.l.l.D.c _.K.x.l.l.x.H.l.x.J.l.h _.^.i.l.l.l.F.x.l.x.Q.c m  Xn.^ R P I &                       ",
"                    s C.}..X}.W M.m g F.D.D.F.D.G.J.D.F.F.j (.H.D.D.F.F.l.J.D.F.F.j _.^.F.D.F.F.F.x.D.F.F.j (.H.u.l.u.l.l.x.l.l._.c s @XC.Y R R I M                       ",
"                    m Y C..XC.R M.m z D.i.F.F.F.G.F.D.D.L. .Q.H.F.D.D.D.D.F.D.D.K.j ).T.x.l.x.l.F.l.D.F.F. .Q.G.y.j.y.i.j.l.l.l.Q.j s @XY ~ ! ! Y &                       ",
"                    m U W C.|.6.6.s z G.D.l.F.F.D.F.F.D.L. ._.G.D.l.F.D.l.F.F.l.J. .Q.K.l.l.x.x.F.F.x.l.x. ._.G.e.i.i.y.i.i.j.j.Q. .s @XY m.Y E Q r                       ",
"                    m U U M.M.M.B.s j F.D.F.F.x.F.F.D.i.F. ._.K.F.l.F.F.l.F.F.l.J. .).v.l.i.F.i.l.l.l.l.x. ._.K.u.i.O.=.=.=.=.e.Q. .m .XY R I R R s                       ",
"                    m U U M.M.! T s j F.i.l.F.l.F.F.D.F.F. ._.v.F.l.l.D.F.x.F.l.J. .).c.x.i.F.F.l.l.l.l.H.} _.v.u. .*X&X=X=X=X=.Q. .& }.Y I K U P s                       ",
"                    s U R W B.T R s j D.i.i.x.F.F.l.l.x.F. ._.J.D.i.F.F.l.F.F.F.F. .E.v.l.x.F.D.j.x.l.x.I.( _.x.y.8 Q Q Q Q Q =.). .s }.Y K J J K s                       ",
"                    s R T R I I I s j D.i.i.l.F.F.F.x.F.x.g Q.K.x.D.i.F.x.F.F.x.D._ '.K.j.x.l.F.F.l.x.l.H.k _.x.y.* B r =XB Q | _. .s R Y Y J K K s                       ",
"                    m U I I K K K s j F.F.F.i.D.F.i.l.F.l.g `.F.l.F.l.F.l.F.x.x.l.g Q.~.x.l.D.N.F.F.J.l.I.g _.F.e.* r + $Xr B / Y.g m R Y Y J P P s                       ",
"                    s J H J J B N s j D.i.F.x.i.D.F.l.F.F.j `.L.J.J.l.F.i.F.K.F.F.} Q.~.F.D.F.F.F.D.J.F.F.j `.L.8.B &XQ $X&X=XB u.q s J G J J J J s                       ",
"            s s s s % $ & % & $ $ s j F.l.l.D.l.D.D.l.D.F.j `.L.F.J.i.D.F.F.J.F.F. ._.~.F.D.D.F.F.x.F.L.L.j `.L.4 &X$X@ Q @ $X=X=.q s & & s & s s & s V V V V             ",
"            s m..X#X%X%X%X%X@X#X#Xs j F.D.D.l.D.i.l.D.l.J.( _.~.x.G.D.F.F.F.J.F.F. .[.~.D.i.D.F.F.F.F.L.J.d `.J.* $X@ + @ @ @ &Xh w s  X#X@X#X@X@X}.}.}.E R s             ",
"            % A.b.E R E ^ n.B.R R s j D.l.l.l.i.u.l.i.l.J. .(.R.F.J.F.F.F.F.F.F.F.f (.H.F.i.x.G.F.x.i.L.F._ `.F.* $XB B B B @ $X8 q M #XI T T I T R m.C.^ J s             ",
"            s |.W W W ^ n.~ B.^ U s j l.l.D.F.j.u.l.j.l.i.w E.^.x.J.i.G.x.x.J.x.F.8 (.I.F.i.i.F.F.x.l.J.c./ `.x.* Q B Q Q B @ $X8 q & XXK K I R R C.C.C.^ G s             ",
"            % .XU M.b.M.M.Y b.b.P s j u.l.i.J.D.i.D.y.D.l.d E.K.x.x.x.x.x.x.x.x.x.4 !.R.N.i.i.F.i.i.x.x.x./ !.x.* Q $XB @ @ $XQ 4 8 s  XK K K R B..X}.^ 6.L m             ",
"            & .XU M.M.M.b.b.Y R I s j u.j.j.l.j.l.l.h.l.j.8 !.^.x.x.x.x.x.x.x.I.x.e v.H.i.i.i.i.i.G.i.x.i.8 `.x.x @ Q &X=X&XQ @ * 8 M @XR I I R B.Z.}.W M.J S             ",
"            s @XU M.|.M.M.Y T I Y s j u.l.x.l.h.y.h.q.l.y.4 E.K.v.i.i.x.x.i.x.x.i.e R.H.i.y.i.i.x.x.i.x.l.4 !.x./ * @ + + @ @ 8 @.8 s #XW R R B.B.B.b.W M.G m             ",
"            s @XY M.M.M.b.b.T Y Y s j i.i.j.h.q.y.q.q.q.q.< E.T.j.i.j.v.i.i.i.x.i.k !.x.i.y.y.i.i.i.i.j.j.3 Q.j./ 3 * * * * 8 h D.3 s #X6.Z.B.B.W B.R Y M.G m             ",
"            s }.W ! ^ M.C.^ R Y K M ( f.j.j.f.t.h.w.w.q.w.= Y.v.i.t.i.j.x.i.i.i.i.e !.v.i.t.y.y.i.t.i.y.y.2 E.y.2.y.i.i.y.i.i.i.'.6 m .XM.M.M.M.C.C.! U ^ J V             ",
"            & .XW ^ 6.|.C.R Y Y K s / q.y.y.t.t.q.w.9.q.9.4 E.c.t.t.t.i.i.w.i.i.y.4 !.v.t.t.t.t.i.w.t.t.y.3 E.t.=.y.e.i.y.4.y.y.'.: m .XM.M.M.Q W |.C.R U G s             ",
"            s ^ W ^ ^ R Y P P P J s / f.y.h.t.w.9.w.9.9.7.= Y.z.t.t.w.i.i.t.t.t.t.7 !.i.t.8.8.8.t.8.t.w.w.3 F.t.=.e.q.y.q...3.:.Y.: m ! M.M.M.Y Q n.~ R T B s             ",
"            m J P P P J G G G G J M j f.t.y.9.:.9.9.:.7.:.4 H.z.w.f.w.y.i.w.t.y.t.3 R.i.8.2.=.8.t.8.w.w.w.3 F.w.X.7.=.3.X.o.3.X.I.: m m G G G G J J J V V N s             ",
"            s V V V V $ m V V V B r 0 g.t.1.:.:.9.9.-.7.:.3 N.z.w.7.7.t.t.8.8.y.8.3 H.y.8.=.=.7.7.4.7.7.7.7 i.t.' { =.-.X.[ ..X.G.= s s s s s V V V V % # $ s             ",
"                    m R .X@X}.}.R r 0 -.-.-.-.-.-.-.:.-.-.7 H.g.7.:.:.t.7.7.:.t.7.3 G.t.7.=.=.:.1.:.:.7.7.7 i.7.' [ =.-.] _ | { G.= s R .X#X#X XY m                       ",
"                    s Y T Y b.! 6.m y -.-.-.-.-.-.-.-.-...7 N.g.1.:.-.t.7.:.:.t.:.3 G.t.-.-.X.:.:.:.-.1.:.7 y.1.) { o.[ ) [ [ ) D.= s S.W Y Y R Y s                       ",
"                    s U T R ! b.M.m e -.X.-.$.-.-.@.-.$.{ 7 N.g.-.:.-.8.-.1.:.w.-.3 ^.8.-.:.-.-.-.-.-.=.-.7 i.1.) ) ] x x i [ ) i.= s @XW R R Y U m                       ",
"                    s R R ! ! R M.m t #.@.-.{ $.$.{ X.X.[ = w.t.-.-.-.>.-.<.:.7.-.3 v.7.X.-.$.-.X.-.@.X.X.7 t.-.p h ' e x e ' ) i.k M #XT W W ! U s                       ",
"                    s R ^ ! Q Y M.m t *.' ' ' { { ' { [ [ = w.<.@.{ { -.{ -.-.:.-.3 t.:.[ @.[ { [ { { { @.- :.$.e p ) e ) ) ) x 3.f s #XT ^ ! ! T s                       ",
"                    s ^ ~ R Y Y ^ s 5 *.` ' ' ` ' ' ' ` x - 1.<.' { [ +.' -.@.@.@.8 w.<.' [ ` ' [ [ ' ` [ - -.{ e e p ) ) ) p ) 3.- s S.Y R R Q ^ s                       ",
"                    s ^ n.R Y ! ^ s 5 ' ) ) ) ` ' ` ` x e - 1.<.' ' ' { { -.' { +.3 p.<.` ' x a ) ' ) ) ' - -.{ e e e ) e e e e X.- s S.T ! R ! C.s                       ",
"                    s ~ ! R R I I s 9 ` a a a a ` a a e p * -.>.` ` ` ' ' @.' ' ' 3 1.>.a ` a p a ` ` a ` * ' ' w i e p i p p e X.* s Q R ! ~ ~ M.m                       ",
"                    s R R P P K K s 5 a p i p y ` p y i e * X.#.a a a ` ' { a ' ' 5 1.#.a a i e a a ` i ' * a ' 0 i u i i i i 0 { 3 s R Y ! m.V.M.m                       ",
"                    s I I P K K P & 5 a i y i y a i y 0 e o @.#.p a a a ` ' a ` ` 3 1.#.i a y i p a a y a X a ` 0 e 0 i i 0 w 0 { 3 M R R ! ~ V.}.s                       ",
"                    M G G G G G V V 5 p p i p y p p y 9 x o { #.p a a a p ' p p ` 5 <.#.i a i y i p a y a o i ` 9 0 y 9 i 0 0 9 p 2 $ J G G J G G s                       ",
"                    m # $ % $ $ $ $ 5 5 5 5 5 5 5 5 5 < < * 9 y 5 5 5 5 5 9 5 5 9 = y y 5 5 5 5 5 5 5 < 5 * 5 9 < < 5 < 5 < 6 < 5 : $ # $ % % s M s                       "
};
