/* XPM */
static char *def147290000414980df12d92f18c70cfk4MtOxGkdFCmjOg[] = {
/* columns rows colors chars-per-pixel */
"85 85 211 2 ",
"   c #f701eb",
".  c #000000",
"X  c #090909",
"o  c #1D1109",
"O  c #141413",
"+  c #1B1A18",
"@  c #160D07",
"#  c #221306",
"$  c #261509",
"%  c #29160A",
"&  c #2C1A0B",
"*  c #26180B",
"=  c #331D0D",
"-  c #391F0F",
";  c #331E11",
":  c #3B1E11",
">  c #2E1A10",
",  c #3C240E",
"<  c #35210D",
"1  c #3C2212",
"2  c #352112",
"3  c #2B241E",
"4  c #2C2C2B",
"5  c #262524",
"6  c #2D3331",
"7  c #323734",
"8  c #363B3A",
"9  c #3C3D3C",
"0  c #372F2C",
"q  c #421F11",
"w  c #4C2D0F",
"e  c #42270F",
"r  c #432414",
"t  c #492616",
"y  c #462913",
"u  c #4C2C15",
"i  c #4C2B19",
"p  c #442618",
"a  c #532D19",
"s  c #5A2F19",
"d  c #522D16",
"f  c #543214",
"g  c #5A3515",
"h  c #5E3816",
"j  c #553219",
"k  c #5C341A",
"l  c #5F3819",
"z  c #4F3015",
"x  c #623B17",
"c  c #643B1B",
"v  c #693E1B",
"b  c #63321E",
"n  c #543B2A",
"m  c #6B3621",
"M  c #6C3C22",
"N  c #663920",
"B  c #743B24",
"V  c #7A3E25",
"C  c #7D3F28",
"Z  c #3D413F",
"A  c #6B411C",
"S  c #73461C",
"D  c #7B4A1A",
"F  c #6E4121",
"G  c #724422",
"H  c #7C4325",
"J  c #7C4B23",
"K  c #7B4527",
"L  c #3D4341",
"P  c #414543",
"I  c #454945",
"U  c #464A48",
"Y  c #4A4D4A",
"T  c #4E534E",
"R  c #51514C",
"E  c #4F5350",
"W  c #525652",
"Q  c #545954",
"!  c #595F59",
"~  c #5A5B55",
"^  c #5B605B",
"/  c #62655F",
"(  c #6F655E",
")  c #636662",
"_  c #656962",
"`  c #696D65",
"'  c #6A6D6C",
"]  c #6E726A",
"[  c #6C7167",
"{  c #73766B",
"}  c #75796E",
"|  c #787B6F",
" . c #767C72",
".. c #7A7E75",
"X. c #7B7E73",
"o. c #797A78",
"O. c #736E6B",
"+. c #834F1D",
"@. c #824427",
"#. c #844329",
"$. c #8A462C",
"%. c #834C2A",
"&. c #8C4A2B",
"*. c #824F20",
"=. c #934D2D",
"-. c #984F2F",
";. c #8B5522",
":. c #8B5329",
">. c #945B25",
",. c #92542D",
"<. c #9A522F",
"1. c #9C5C2F",
"2. c #965B2C",
"3. c #984C34",
"4. c #9C5331",
"5. c #985832",
"6. c #A15631",
"7. c #A45C33",
"8. c #AA5D35",
"9. c #A9563C",
"0. c #B15E3C",
"q. c #A0582F",
"w. c #9D612B",
"e. c #9D6031",
"r. c #A5642F",
"t. c #A46333",
"y. c #AB6336",
"u. c #AB6A36",
"i. c #AE6638",
"p. c #AE6C39",
"a. c #A46A33",
"s. c #B16337",
"d. c #B46539",
"f. c #B36C3A",
"g. c #BA6C3B",
"h. c #B76A37",
"j. c #AD753A",
"k. c #AF7A39",
"l. c #AB7435",
"z. c #B5713C",
"x. c #BB743C",
"c. c #B27D3B",
"v. c #BE793D",
"b. c #C06F3F",
"n. c #C3753D",
"m. c #C27B3E",
"M. c #CA7B3E",
"N. c #C8763F",
"B. c #B55C42",
"V. c #B86441",
"C. c #B77740",
"Z. c #C16C45",
"A. c #C66848",
"S. c #C57542",
"D. c #C47B41",
"F. c #CC7D42",
"G. c #CB7545",
"H. c #D07F44",
"J. c #D57B4D",
"K. c #7D8176",
"L. c #7E8177",
"P. c #7E8279",
"I. c #7D837A",
"U. c #B2803B",
"Y. c #C8833E",
"T. c #D28B3D",
"R. c #808276",
"E. c #81847A",
"W. c #85887C",
"Q. c #84887D",
"!. c #888B7F",
"~. c #C78240",
"^. c #CE8143",
"/. c #CE814A",
"(. c #D28345",
"). c #D58A44",
"_. c #DA8D46",
"`. c #D68549",
"'. c #DA844B",
"]. c #D68848",
"[. c #DB8A4A",
"{. c #DD9247",
"}. c #DE9348",
"|. c #DA9744",
" X c #DE8551",
".X c #E18D4E",
"XX c #E3934C",
"oX c #E49C49",
"OX c #E19A46",
"+X c #E38C52",
"@X c #E59052",
"#X c #EA9A51",
"$X c #E6A14A",
"%X c #E9A44D",#f701eb
"&X c #ECAA4E",
"*X c #E4A147",
"=X c #EEA752",
"-X c #F0A955",
";X c #F0A755",
":X c #868A81",
">X c #888E85",
",X c #808080",
"<X c #8D928A",
"1X c #8B9186",
"2X c #90968C",
"3X c #92998F",
"4X c #959C92",
"5X c #989F95",
"6X c #9BA298",
"7X c #99A096",
"8X c #A9AEA5",
/* pixels */
"                                                                        ! ! ! ! ^ ^ ! ! ! ! ^ ! !                                                                         ",
"                                                                      ! 6X6X3X7X3X3X4X5X5X4X6X7XQ.'                                                                       ",
"                                                                    L <X1XP.P.Q.I.I.I.I.I.K. . . .I.E                                                                     ",
"                                                                    L 1X .o...:XI.I.I.I. .' [ ` [ ` I                                                                     ",
"                                                                    Z >X} ..L.R.o.I.I.I.} _ ) ` ] ) L                                                                     ",
"                                                                    L {  ..... .o.o.I.I.} ) _ ` { !                                                                       ",
"                                                                      ^ X... . .j.,Xo.E. .` ` ` [ L                                                                       ",
"                                                                      W X. .} X...} ..E.{ { ' ) _ L                                                                       ",
"                                                                      I K.{ | L.K.[ X.P.{ { ' {  .L I                                                                     ",
"                                                                U W L P { ] K.I.} } L.P.' X.} { _ L ! ! I                                                                 ",
"                                        T R                 L >X2X:X] Z ^ ] }  .` )  .L.R.X...../ I 4X3X5X:XQ L             _ P                                           ",
"                                      T _ I.`         L I >X3X .I. .{ Z T K.{ [ ` `  . .{ ....{ ! T 3X]  .I.<X>X! I       _ 2XI.P                                         ",
"                                    P >X<X ._ T     L >X<X{ } } [ [ ' L L `  .| { X.X.`  .} ....T { <X} ] _ ] I.<X` U   _ W.W.2X2XI                                       ",
"                                  ) <XX. .I.I._ _ P >X1XK. .} ] [ [  .Q L I.>XI. .:X:XE.R.o. ...L I.I.] ] [ [ ` I.1XW / W.2XW.R.W.>XP                                     ",
"                                T >X .}  .] I.) I.T I.I. . .K.:XI. . .) Z I.K.I.P.R.R.....{ { { L >X . . .{ ] [ { ` P W.2XW.>XW.R.L.P.P                                   ",
"                              I >X .{  .{ { { { } _ I  .I.>X . . .} ` } L [ _ } .... .P.P.} { ` E <X] {  . .] | | P W 1XW.W.W.W.R.X. .] I                                 ",
"                            Z ] >X{ {  .I.K. .I.I.I.W W I.K.]  .] ] ] Y 8 E ^ ^ ^ ^ ^ ^ ^ ^ ^ E U W.[  . .{  .X.~ U 3XR.1XW.>XW.W.W.E.:X_                                 ",
"                              Z [ .._  .]  .}  .] I.K.Z _ K.] >X] > 1 F 1 M K M N N k c k N & 1 2 + o ]  .`  .} P Q.!.L.W.R.K.P.W.>XW.] P                                 ",
"                                I ]  .X.X.] | { ] K.I./ L [ _ 2 G %.i.D.N 5.:.%.G N l N N F 1 l u r > & o ! ` T W 4XR.E.R.E.K.|  .1X[ P                                   ",
"                                  L _ >X{ K.] ] K. .K.K.L 3 G J i.p.f.~.F S.t.:.:.G n F k F , l j y 1 2 & & @ Y I.!.W.W.R.P.W.P.W.[ Z                                     ",
"                                Z ^ Z ^ .. . . .I. . .U p %.y.d.f.f.V.|.G G.v.,.,.%.F F N F y A j i 1 , 2 1 * . ! >XL.{ L.:XE.Q.! Z { Z                                   ",
"                                ^ !.] I  .] { `  .{ I > %.i.i.f.f.f.C.|.>.F.v.a.t.5.%.K F G u A l z y 2 2 2 < . . P ` [ ] ..:X! Z 2X{ ^                                   ",
"                              Z <XQ.>XW E  . .[ ` I k a V.z.f.f.z.v.F.$Xe.~.D.p.u.u.e.>.F G y F j j i y , , 2 . . . 9 ^ [ ] W P W.Q.R.{ Z                                 ",
"                            Z >X>X .} 2XZ T  .^ I i ,.M C.z.f.v.N.D./.&Xe.F.C.p.u.u.a.e.J J u F c j z u y 1 < . . . . I W U L <XI.{ W.W.} Z                               ",
"                            ^ !.| X.] | ) 8 Z P i J x.A x.v.n.F.D./.].-Xr.D.D.p.p.p.r.y.,.J z A c j f i y r < . . . . . 8 Z 2XE.E.>X>XE.{ ^                               ",
"                          I >X{  .{  .!.,X .Z j K a.v.G S.F.F.^.Y.(.).-Xa.m.S.j.p.p.l.z.u.2.g N l k j f u y < . . . . . . ! X.| E.E.I.E.E.{ Y                             ",
"                          ^ X.{  .X.!. .I.! 1 %.y.u.m.G F.(.(.].(.(.).-Xa.~.v.f.x.x.z.z.j.a.k v l l j j z y , . . . . . . . ! L.| !.E.E.{ { ^                             ",
"                        U Z ] { {  .X. .] > K i.u.u.).>.(.].].].OX[.[.=Xr./.C.z.l.z.z.z.u.p.j c k l g j i y < . . . . . . . . | K.E.} { E.[ Z I                           ",
"                        ] ^ Z ^ ] { { <X^ y 7.f.x.M.`.K +X].[.].}.[.[.-Xw.^.C.x.z.z.z.z.p.j.l l l k g z z u 1 . . . . . . . . ! [ E.{ ] ! Z ^ !                           ",
"                        :X:XI.^ W ] ] | ; K 7.V.n.F._.J }.`.[.}.}.].].&X>./.F.D.z.z.x.z.j.C.x A l j k j a y < . . . . . . . . . ^ [ ^ R ^ E.[ !                           ",
"                      T X.{ ] !.<X^ [ ^ v y.1.C.D.`.].D }.].].+X}.).].&X>./.D.D.z.z.z.z.C.C.x A l l g f f y = . . . . . . . . . T W ^ 2XE.[ { [ Z                         ",
"                      :X{ ] X.[ { !.^ % 1.y.7.S.F.].oXG }.].].+X}.(.].&X:.'.C./.C.C.C.C.C.j.A G l g g g f r & . . . . . . . . . . ! E.{ [ X.{ { !                         ",
"                      [ K.K.[ [ { ] ] k t.8.t.G.~.).&XJ }.`.[._.+X(.^.&X*./.D./.D.x.C.z.C.j.A A h h h g j r & . . . . . . . . . . ] ] { { { | | ]                         ",
"                      { K.[ [ K.] ] ^ h y.7.y.F.(.].&X>.}.(.`.{._.(.].%X;.'.~.~.C.c.v.x.z.j.l F h h k g z y , . . . . . . . . . . ! [ ] X.[ ] K.{                         ",
"                      [ K.[ ` [ ] { ^ D V.y.i.(.(.(.&X>..X(.].{.`.^.).%X>.+X/.~.v.z.C.z.z.U.l A h l h z z u , . . . . . . . . . . ! { ] ] [ { | {                         ",
"                    Z K.[ K.K.K.{ ^ < D V.i.f.(.(.[.-X>.@X`.].{.^.].).%X2.+X~./.Y.x.D.x.C.U.A A A l h f z i y . . . . . . . . . . . ! } | | X.{ { L                       ",
"                    Z U Z Z Z Z Z U w D Z.d.f.(.).}.-X>.@X).[.[.(.(.).%X>.{.`.~.~.x.v.c.j.U.A A h A A f w w , . . . . . . . . . . . U 9 9 P L L U n                       ",
"            Z ^ { <X6X8X8X8X8X8X6XZ w D f.f.V.].[.}.-X>.@X(.].[./.(.`.oX>.}.`.[.C.z.~.z.p.U.A A h h h g z y & . . . . . . . . . . . L <X6X5X<X:X6X6X6X>X .] Z             ",
"            Z ] _ ] K.[ ` ] [ K.] Z h D f.V.D.].[.}.-X>.@X].`.).Y.).].oX>.}.`.]./.z.~.z.p.U.A A A h h f z y & . . . . . . . . . . . Z ]  . .} ..>XI.} ] K.^ Z             ",
"            Z >X{  ...` _ _ [ K. .Z A D z.V.).].[.XX-X>.+X].].].^.].].$X>.}.`.`./.C.`.z.z.U.A J A h h g z y & . . . . . . . . . . . Z {  .R...E.:Xo.] ' K.^ Z             ",
"            Z 6X'  .I.I.' ) / [ ] Z h D C.Z.XX).[._.-X>.@X].].].Y.(.[.$X>.XX(.(.H.z.H.C.j.C.A F A x l g u y = . . . . . . . . . . . Z <X} ....E.I.I.I.' j.! L             ",
"            Z 6X' o.o.>X>XI.K./ } Z h D Z.S.}.`.[.[.-X>.XX(.(.`.^.(.].$X>._.(.]./.z.H.f.V.k.l F A A l g f y & . . . . . . . . . . . Z 1X`  .} ..I. .K.I.,X! L             ",
"            Z 6Xo.o...R.>XI.K.K.K.Z h D S.~.}.).[.].&X>.+X(.(.(.^.(.(.&X2._.(.].~.z.~.C.j.c.k G A c c h u r & . . . . . . . . . . . L 6X` {  .X.I.I.I.I.o.^ L             ",
"            Z :X' j... .I.K.I.] _ Z A D S.F.}.`.'.].&X>.+X].(.(.M.(.].&XD +XH.(.~.z.D.f.p.U.g F F c v k y r = . . . . . . . . . . . L 6X{ ..X.X.I. .o. .I.^ L             ",
"            Z R.{ } ............{ Z x D (.M.}.].(.(.&X>.+X(.^.^.^.Y.].&XD +XF.(.Y.f.Y.f.p.k.g J c F F j y r = . . . . . . . . . . . Z 6X........ .o. .{ ] ^ L             ",
"            L } ` ` ` ` _ _ ] X.{ Z x D (.F._.(.].'.&X>.+X(.^.(.^.M.].&XJ  X(.H.m.f.m.f.p.k.A F F v h i n r = . . . . . . . . . . . Z 1X} { ` `  . .` ` ` W Z             ",
"            9 ] ) / ) ) _ ` ] { ` 9 x D H.m.}.].].(.;X>.+X^.F.~.(.F.].&XJ +XG.H.v.z.v.f.u.k.A F G n ( O.~ u , . . . . . . . . . . . L 1X .{ ] ` ` [ ) ^ ^ W Z             ",
"            L ^ / ! ! ! ! ! ^ ^ ^ Z x D (.H._.(.].(.;X>._.(.F.F.F.F.F.$XD +XH.F.v.f.v.f.u.k.c G j ' W 9 0 y , . . . . . . . . . . . L ^ ^ ^ ^ ^ ^ ^ W Q W U L             ",
"            L L Z Z Z Z Z P Z Z Z Z g D T.^.[.(.`.H.&X;._.(.M.M.G.(.].%XD '.(.M.m.p.v.f.u.k.h G 1 8 4 o.0 - = . . . . . . . . . . . Z 9 Z Z L L L 9 L L Z L L             ",
"                    9 { 1X6X6X:X} Z f D (.F.`.(.(.(.&XJ [.(.M.(.Y.H.].$X:.'.F.M.m.p.v.f.t.k.h G % 5 O ~ 9 3 = . . . . . . . . . . . Z { 1X6X8X<X{ 9                       ",
"                    Z :X<X<X:XR.K.Z f D M.(.`.(.`.G.#XD ].(.^.(.Y.H.].oX>.J.H.G.v.u.v.u.y.k.u S > 9 8 W o.! > . . . . . . . . . . . L 1XP.X.{ _ ` Z                       ",
"                    Z E.:X<X:X .K.Z f D n.^.(.F.(.(.%X*.).(.F.^.(.M.].$X>.J.M.(.m.f.v.z.p.k.f S 4 o.4 9 P ' & . . . . . . . . . . . L 6XE.] { ] _ Z                       ",
"                    L ] R.<XE.{ ,XL 0 D F.F.H.(.(.].#X>.T.H.^.(.(.M.].*X>.J.G.H.v.f.m.f.p.U.g z ,XY O + O E > . . . . . . . . . . . Z 6X] .. . .] Z                       ",
"                    L [  .E.,Xj.j.L x D (.^.(.(.F.].&X>.'.(.M.(.(.H.(.oX;.'.G.Y.m.z.m.z.p.U.f & ) + 5 5 O E > . . . . . . . . . . . Z 6X] P.{ } } Z                       ",
"                    L _ ' I.,Xo.| L h D (.F.^.(.F.(.%X>.J.(.M.^.(.(.F.oXS +XH.Y.m.x.m.f.p.U.u % ) 5 9 9 4 P > . . . . . . . . . . . L 1X] { ` ] ] Z                       ",
"                    L _ [ I.I.I.] Z g D (.F.(.(.F.].%X>.'.H.F.F.(.(.F.oX+.+X(.Y.v.f.v.z.p.U.g & U n 4 + E + % . . . . . . . . . . . L :X' ` / ` ` 9                       ",
"                    Z [ { K.K.[ [ Z g D T.M.(.^.(.(.$X;.].H.(.M.(.].'.oX>.+X(.M.v.z.m.z.u.k.g $ I ! ) o.6 * % . . . . . . . . . . . Z :X] ) ^ / / Z                       ",
"                    L { ] ] ` ( ` Z f D ].M.F.^.(.M.$XS '.F.^.H.(.'.(.%X>.+X(.^.v.z.v.f.u.k.g e + 8 8 + O 1 & . . . . . . . . . . . Z ] ] ] ! ^ / Z                       ",
"                    L ` ( ` / / / Z x D H.M.F.^.(.H.%XS `.(.].M.(.].(.;XD _.(.M.v.f.v.f.t.k.e f % O @ # e u 2 . . . . . . . . . . . Z { ] { ^ ` _ Z                       ",
"                    Z ^ ^ ^ ^ U U Z h D F.N.F.F.H.(.&XD ].(.].F.(.(.H.#Xc _.(.M.v.f.v.f.u.k.e f q q 1 1 i i % . . . . . . . . . . . Z ! ! ^ ! ^ ^ Z                       ",
"            Z Z Z Z Z 7 Z 7 Z 7 7 Z g D (.^.(.H.(.(.&XD +XH.(.F.(.`.H.#Xx .XF.N.v.f.x.f.y.l., a a t r p 1 p o . . . . . . . . . . . Z L 8 Z Z 9 Z Z Z I I U U             ",
"            Z I.>X7X8X8X8X8X7X7X6XZ g D (.H.F.^.M.].%X;.+XH.H.H.T.(.G.+Xh ].H.m.x.y.x.y.t.u.e i t r q : 1 1 % . . . . . . . . . . . Z 1X6X6X6X6X6X:X:X:X} ] Z             ",
"            Z W.K.{ { } K.K.I.} ] Z f D (.M.F.F.F.`.$X;..XH.(.H.).).H.+Xv ).M.n.x.r.x.t.t.l., a r q q r 1 r # . . . . . . . . . . . L 6X` ] ] ` ] ] L.E.K.^ Z             ",
"            Z I.K.K.} } K.K.K.K.` Z x D (.H.F.F.F.H.oXv .XH.H.M.H.).M..Xv T.M.x.x.t.x.7.1.a.e a i q t r r t # . . . . . . . . . . . Z 1X/ / ` { { Q.R.E.X.! Z             ",
"            8 1X] I.I.K.I.K.K.K._ Z h D ^.^.F.F.F.F.OXv  XH.H.G.M.J.M.#Xv .Xn.h.h.q.h.w.1.1.y d t t t p r r # . . . . . . . . . . . Z 1X) / / { I.<X>XI. .! L             ",
"            L <X' ' I.I.K.K.] ] ` Z g D F.F.F.M.S.F.OXh '.H.G.F.J.M.M.#Xx J.n.h.r.q.8.1.,.2., s t t t t p q $ . . . . . . . . . . . Z 6X} ` ` { o.>X>X .I.! Y             ",
"            Z 6X' I.>X,XK.[ [ ` K.Z f D M.F.M.b.n.S.*Xg '.G.M.F.M.M.n.XXg M.b.8.y.<.r.<.@.,.y d t t t q y r = . . . . . . . . . . . Z 6XI.I.{ j.,Xo...X.K.^ Z             ",
"            Z 6XI. .I.,XK.K.[ [ ` Z f D M.G.N.b.g.n.OXw J.G.n.S.M.N.b.XXg N.s.r.q.,.q.=.H :.e s t t p p q 1 % . . . . . . . . . . . Z 6X .,X,X,Xj.X.} ]  .^ L             ",
"            Z :X|  .X.j.E.X.{ ] / Z x D Y.Y.H.b.g.h.OXf J.S.b.N.M.N.b..Xg n.s.8.q.=.<.&.%.2., d t t r r : : o . . . . . . . . . . . Z <XI.I.I.K.R.W. .` X.^ U             ",
"            Z 1X} X.R.R.E.] ' { _ Z A D T.M.Y.h.h.d.|.g J.b.b.N.N.n.s._.g n.8.6.<.&.<.%.@.,.e s t r t r : : o . . . . . . . . . . . Z <X' I.K.] X.:XE.{ ` ! Z             ",
"            9 ..| | X.{ { ) _ _ ^ Z g +.G.G.M.s.0.s.|.w G.b.h.N.N.n.8..Xg h.7.6.&.&.=.&.V :., w t q r : : - o . . . . . . . . . . . Z { K.I.I.K.} P...{ ] I Z             ",
"            L ^ ` / ` ^ ^ ^ ! ! ^ Z f D h.N.M.0.8.8._.x A.h.8.b.0.b.8.T.h h.6.7.&.@.&.@.B @., y r q r : : = % . . . X . . X X . X . Z L ^ ^ ! Q ^ ^ ! U U U Z             ",
"            L U U U U 7 8 U U U L n w +.b.n.N.8.7.7.|.g G.0.8.b.0.h.8.'.g s.-.-.#.C C V v @.= t t q r : : > % X . X X . X X X X X . Z Z Z Z Z I U U U 8 6 7 Z             ",
"                    Z { <X6X>X>Xo.n w D A.b.b.8.7.7.T.w A.0.q.h.7.h.6.G.g 8.&.=.V V V B b B & t r q : : = = # X X X X X . X X . X X Z ] 1X6X7X<X] L                       ",
"                    Z ] [ { .. .I.L g D A.b.s.6.6.<.T.w A.6.8.8.<.8.6.A.x 9.#.$.B B B B b m & r r : : : % > # X X . X . X X X X X X Z >X| ] ] { ] Z                       ",
"                    Z [ ` { ..X.X.L w D b.6.8.6.6.=.T.w A.6.6.6.-.6.3.V.g 9.#.#.B m B m b s % r : : : ; # # @ X . X . X X . . X X X Z 6X .{ { ] ` L                       ",
"                    Z ] }  . . .X.Z f D b.6.-.-.<.=.h.w 0.3.-.3.$.3.$.B.s 9.V #.m m B m s b % r - - ; o . X X . X . X . X . X X X X Z 6X] | X. .` L                       ",
"                    Z { X. .] ] X.Z w D s.6.6.=.=.$.s.w 9.=.$.-.3.$.$.B.s 3.V C b m b m t i = % . . . X                           X Z 6X]  . . .] Z                       ",
"                    Z X...{ ] ] K.Z f D 6.q.-.=.&.@.0.w 9.$.$.$.$.$.$.d.g 3.B C d t d = X                                         X L !.[ { ] {  .Z                       ",
"                    Z X.L.} ]  .K.Z w D 6.=.=.#.@.V 0.q 3.#.#.$.#.$.$.0.g b s = X                                                   L >X{  .{  .E.Z                       ",
"                    Z  . .] ] ` ( Z f D =.-.$.@.V B 6.e 3.C #.V V k s m =                                                           L } ]  .X.P.L.L                       ",
"                    Z } { ` ` / ^ Z f D =.#.#.C B B <.e 3.b s s 1 X X                                                               Z { ]  .P.R.P.L                       ",
"                    9 ` ` / ) ) / Z f D @.#.H V M s b e ; X X O X                                                                   Z ] }  ...E.E.Z                       ",
"                    P ^ ! ! ! ^ U U . f @.s s j = X X X X O O O                                                                     7 ^ ^ ^ ^ ^ ^ Z                       ",
"                    L 6 8 8 7 7 7 7 . ; 2 2 O O X                                                                                   7 6 7 8 8 Z P Z                       "
};
