/* XPM */
static char *_3932_41cb6429433b5b166e0dc79a5bd97aedebb8978a261d2ed3cf13020c44b0de42[] = {
/* columns rows colors chars-per-pixel */
"64 64 80 1 ",
"  c #010102",
". c #090604",
"X c #0A0804",
"o c #060709",
"O c #0B0B0B",
"+ c #120702",
"@ c #110C04",
"# c #1E0E03",
"$ c #171107",
"% c #1A1307",
"& c #1B1509",
"* c #1F190C",
"= c #131314",
"- c #241406",
"; c #201A0F",
": c #291A0E",
"> c #231B10",
", c #2C1C16",
"< c #211A1B",
"1 c #2D220D",
"2 c #33270E",
"3 c #252015",
"4 c #2E2311",
"5 c #332814",
"6 c #433314",
"7 c #4D3A14",
"8 c #8C4305",
"9 c #9A4901",
"0 c #B45700",
"q c #B65800",
"w c #A95A10",
"e c #B86500",
"r c #C36D00",
"t c #CB6F00",
"y c #C1660A",
"u c #D47500",
"i c #DA7700",
"p c #D27B06",
"a c #DB7A00",
"s c #DD7D0C",
"d c #DE8101",
"f c #E18502",
"g c #E2870D",
"h c #E3890B",
"j c #DF8A22",
"k c #C39633",
"l c #C39832",
"z c #E08922",
"x c #D7A337",
"c c #D6A53A",
"v c #D8A539",
"b c #DCAA3B",
"n c #F3AF33",
"m c #EBB53C",
"M c #F7B234",
"N c #F8B637",
"B c #F5B43C",
"V c #F8B739",
"C c #F5BC3F",
"Z c #FCBD3D",
"A c #FDC13E",
"S c #EBB540",
"D c #F2B442",
"F c #F7BD41",
"G c #FABF42",
"H c #F7C042",
"J c #FFC342",
"K c #FFC54B",
"L c #FDC653",
"P c #FEC954",
"I c #FECB5B",
"U c #FFE7A9",
"Y c #FFE8AC",
"T c #FEEAB3",
"R c #FEEDBB",
"E c #FEF0BE",
"W c #FEEFC1",
"Q c #FEF1C5",
"! c #FEF4CA",
"~ c #f701eb",
/* pixels */
"~~~~~~~~~~~~~~~~~~~~~~~~~~~~~~~~~~~~~~~~~~~~~~~~~~~~~~~~~~~~~~~~",
"~~~~~~~~~~~~~~~~~~~~~~~~~~~~~~~~~~~~~~~~~~~~~~~~~~~~~~~~~~~~~~~~",
"~~~~~~~~~~~~~~~~~~~~~~~~~~~~~~~~~~~~~~~~~~~~~~~~~~~~~~~~~~~~~~~~",
"~~~~~~~~~~~~~~~~~~~~~~~~~~~~~~~~~~~~~~~~~~~~~~~~~~~~~~~~~~~~~~~~",
"~~~~~~~~~~~~~~~~~~~~~~~~~~~~~~~~~~~~~~~~~~~~~~~~~~~~~~~~~~~~~~~~",
"~~~~~~~~~~~~~~~~~~~~~~~~~~~~~~~~~~~~~~~~~~~~~~~~~~~~~~~~~~~~~~~~",
"~~~~~~~~~~~~~~~~~~~~~~~~~~~~~~~~~~~~~~~~~~~~~~~~~~~~~~~~~~~~~~~~",
"~~~~~~~~~~~~~~~~~~~~~~~~~~~~~~~~~~~~~~~~~~~~~~~~~~~~~~~~~~~~~~~~",
"~~~~~~~~~~~~~~~~~~~~~~~~~~~~~~~~~~~~~~~~~~~~~~~~~~~~~~~~~~~~~~~~",
"~~~~~~~~~~~~~~~~~~~~~~~~~~~~~~~~~~~~~~~~~~~~~~~~~~~~~~~~~~~~~~~~",
"~~~~~~~~~~~~~~~~~~~~~~~~~~~~~~~~~~~~~~~~~~~~~~~~~~~~~~~~~~~~~~~~",
"~~~~~~~~~~~~~~~~~~~~~~~~~~~~~~~~~~~~~~~~~~~~~~~~~~~~~~~~~~~~~~~~",
"~~~~~~~~~~~~~~~~~~~~~~~~~~~~~~~~~~~~~~~~~~~~~~~~~~~~~~~~~~~~~~~~",
"~~~~~~~~~~~~~~~~~~~~~~~~~~~~~~~~~~~~~~~~~~~~~~~~~~~~~~~~~~~~~~~~",
"~~~~~~~~~~~~~~~~~~~~~~~~~~~~~~~~~~~~~~~~~~~~~~~~~~~~~~~~~~~~~~~~",
"~~~~~~~~~~~~~~~~~~~~~~~~~~~~~~~~~~~~~~~~~~~~~~~~~~~~~~~~~~~~~~~~",
"~~~~~~~~~~~~~~~~~~~~~~~~~~            ~~~~~~~~~~~~~~~~~~~~~~~~~~",
"~~~~~~~~~~~~~~~~~~~~~~~~~~@X.XXXXX.XXX~~~~~~~~~~~~~~~~~~~~~~~~~~",
"~~~~~~~~~~~~~~~~~~~~~~~~=ocZAGZHZHAHGH;O~~~~~~~~~~~~~~~~~~~~~~~~",
"~~~~~~~~~~~~~~~~~~~~~~~~*&bJZZZZZZZZZZ2;~~~~~~~~~~~~~~~~~~~~~~~~",
"~~~~~~~~~~~~~~~~~~~~~~= lJAJaaiaaauaaiZHX ~~~~~~~~~~~~~~~~~~~~~~",
"~~~~~~~~~~~~~~~~~~~~~~= kJJJaiiaiiiiiiZC@.~~~~~~~~~~~~~~~~~~~~~~",
"~~~~~~~~~~~~~~~~~~~~==bmGATWJAZZZZZZZJfamm4 ~~~~~~~~~~~~~~~~~~~~",
"~~~~~~~~~~~~~~~~~~~~  mJJJT!KJJAJKKJJJdaJJ4 ~~~~~~~~~~~~~~~~~~~~",
"~~~~~~~~~~~~~~~~~~~~  SJJJR!KJJAEQQ!IJdaZJ1 ~~~~~~~~~~~~~~~~~~~~",
"~~~~~~~~~~~~~~~~~~~~3&BJKKYQKJZZYQ!!IJfdZZ6&~~~~~~~~~~~~~~~~~~~~",
"~~~~~~~~~~~~~~~~~~O vJJJY!PAJJguZAW!IJJAaiZJ& ~~~~~~~~~~~~~~~~~~",
"~~~~~~~~~~~~~~~~~~O xJAAY!PAJJhiZAQ!IAJJaiMJ& ~~~~~~~~~~~~~~~~~~",
"~~~~~~~~~~~~~~~~~~O xJJAY!PJRWIZJJR!!WWRsiNJ% ~~~~~~~~~~~~~~~~~~",
"~~~~~~~~~~~~~~~~~~O vAJJY!PAR!IJJJR!!W!!saNJ% ~~~~~~~~~~~~~~~~~~",
"~~~~~~~~~~~~~~~~~~O eaZJY!jaGJJJJGJKKJR!aaNJ& ~~~~~~~~~~~~~~~~~~",
"~~~~~~~~~~~~~~~~~~O eiZJY!jaGJJJJJJAJAR!aiNJ% ~~~~~~~~~~~~~~~~~~",
"~~~~~~~~~~~~~~~~~~O eiZJY!jaZJJJJJJJJJR!saVJ% ~~~~~~~~~~~~~~~~~~",
"~~~~~~~~~~~~~~~~~~O eiZAY!jaAJJJJAJJJJRWaaVJ% ~~~~~~~~~~~~~~~~~~",
"~~~~~~~~~~~~~~~~~~O eiZJY!zaaaaaVGJJhaGLaaVJ% ~~~~~~~~~~~~~~~~~~",
"~~~~~~~~~~~~~~~~~~O eiZJY!zaaaaiZJJJhaZJaaVJ% ~~~~~~~~~~~~~~~~~~",
"~~~~~~~~~~~~~~~~~~O eaZJY!LJJJhuZJR!IJJJaaNJ& ~~~~~~~~~~~~~~~~~~",
"~~~~~~~~~~~~~~~~~~O eaGJY!PHAJhiZJ!!IJJJauNJ& ~~~~~~~~~~~~~~~~~~",
"~~~~~~~~~~~~~~~~~~~~:-pdGIYTKJgaddLIKJhdMZ71~~~~~~~~~~~~~~~~~~~~",
"~~~~~~~~~~~~~~~~~~~~  tiMJT!KJhiiaGJJJdaZJ1 ~~~~~~~~~~~~~~~~~~~~",
"~~~~~~~~~~~~~~~~~~~~  tiMJRQKAJZZGJJJJdaZJ1 ~~~~~~~~~~~~~~~~~~~~",
"~~~~~~~~~~~~~~~~~~~~OOruMHT!PJJJJJKJJJfaFH5O~~~~~~~~~~~~~~~~~~~~",
"~~~~~~~~~~~~~~~~~~~~~~<.8qDJE!!WW!!!!QLF%O~~~~~~~~~~~~~~~~~~~~~~",
"~~~~~~~~~~~~~~~~~~~~~~= 8qBJQ!!!!!!!!!PJ@ ~~~~~~~~~~~~~~~~~~~~~~",
"~~~~~~~~~~~~~~~~~~~~~~~~,#wyLIIPPIPIPI64~~~~~~~~~~~~~~~~~~~~~~~~",
"~~~~~~~~~~~~~~~~~~~~~~~~O 9qZJJJJJJJJJ&o~~~~~~~~~~~~~~~~~~~~~~~~",
"~~~~~~~~~~~~~~~~~~~~~~~~~~@+$$$$$$$$$%~~~~~~~~~~~~~~~~~~~~~~~~~~",
"~~~~~~~~~~~~~~~~~~~~~~~~~~            ~~~~~~~~~~~~~~~~~~~~~~~~~~",
"~~~~~~~~~~~~~~~~~~~~~~~~~~~~~~~~~~~~~~~~~~~~~~~~~~~~~~~~~~~~~~~~",
"~~~~~~~~~~~~~~~~~~~~~~~~~~~~~~~~~~~~~~~~~~~~~~~~~~~~~~~~~~~~~~~~",
"~~~~~~~~~~~~~~~~~~~~~~~~~~~~~~~~~~~~~~~~~~~~~~~~~~~~~~~~~~~~~~~~",
"~~~~~~~~~~~~~~~~~~~~~~~~~~~~~~~~~~~~~~~~~~~~~~~~~~~~~~~~~~~~~~~~",
"~~~~~~~~~~~~~~~~~~~~~~~~~~~~~~~~~~~~~~~~~~~~~~~~~~~~~~~~~~~~~~~~",
"~~~~~~~~~~~~~~~~~~~~~~~~~~~~~~~~~~~~~~~~~~~~~~~~~~~~~~~~~~~~~~~~",
"~~~~~~~~~~~~~~~~~~~~~~~~~~~~~~~~~~~~~~~~~~~~~~~~~~~~~~~~~~~~~~~~",
"~~~~~~~~~~~~~~~~~~~~~~~~~~~~~~~~~~~~~~~~~~~~~~~~~~~~~~~~~~~~~~~~",
"~~~~~~~~~~~~~~~~~~~~~~~~~~~~~~~~~~~~~~~~~~~~~~~~~~~~~~~~~~~~~~~~",
"~~~~~~~~~~~~~~~~~~~~~~~~~~~~~~~~~~~~~~~~~~~~~~~~~~~~~~~~~~~~~~~~",
"~~~~~~~~~~~~~~~~~~~~~~~~~~~~~~~~~~~~~~~~~~~~~~~~~~~~~~~~~~~~~~~~",
"~~~~~~~~~~~~~~~~~~~~~~~~~~~~~~~~~~~~~~~~~~~~~~~~~~~~~~~~~~~~~~~~",
"~~~~~~~~~~~~~~~~~~~~~~~~~~~~~~~~~~~~~~~~~~~~~~~~~~~~~~~~~~~~~~~~",
"~~~~~~~~~~~~~~~~~~~~~~~~~~~~~~~~~~~~~~~~~~~~~~~~~~~~~~~~~~~~~~~~",
"~~~~~~~~~~~~~~~~~~~~~~~~~~~~~~~~~~~~~~~~~~~~~~~~~~~~~~~~~~~~~~~~",
"~~~~~~~~~~~~~~~~~~~~~~~~~~~~~~~~~~~~~~~~~~~~~~~~~~~~~~~~~~~~~~~~"
};
