/* XPM */
static char *_8638_7036592082e33164eb2a40af8f1238d44fda2dac6ff79ffbeff8479e68bb09a4[] = {
/* columns rows colors chars-per-pixel */
"64 64 78 1 ",
"  c #020101",
". c #0A0604",
"X c #0A0804",
"o c #0A0A0A",
"O c #140C04",
"+ c #180D05",
"@ c #140D09",
"# c #171107",
"$ c #191307",
"% c #14100A",
"& c #1C1509",
"* c #1F190D",
"= c gray8",
"- c #1B1917",
"; c #171819",
": c #1A1A1A",
"> c #281306",
", c #201408",
"< c #291708",
"1 c #241B0A",
"2 c #2C1B10",
"3 c #2D220F",
"4 c #372008",
"5 c #282215",
"6 c #27211A",
"7 c #2C271D",
"8 c #2D281E",
"9 c #322613",
"0 c #2C2C2C",
"q c #3C3220",
"w c #AC5203",
"e c #AE5208",
"r c #B35505",
"t c #B95D03",
"y c #BD640B",
"u c #D37700",
"i c #DA7700",
"p c #D77900",
"a c #DB7B00",
"s c #C67319",
"d c #DF8202",
"f c #E08404",
"g c #E38907",
"h c #E0870B",
"j c #E38C0E",
"k c #E58D16",
"l c #D6A436",
"z c #D6A238",
"x c #E3AF3C",
"c c #E6B13D",
"v c #EAB53C",
"b c #EDBA3E",
"n c #F4B537",
"m c #F9B737",
"M c #F9B837",
"N c #F3B73A",
"B c #F9B639",
"V c #FCBD3D",
"C c #FDC23F",
"Z c #EEB741",
"A c #F6BD41",
"S c #FABE41",
"D c #EDBD51",
"F c #F6C042",
"G c #FFC342",
"H c #FEC54B",
"J c #FEC653",
"K c #FFC955",
"L c #FFCA59",
"P c #FADDA3",
"I c #FAE1AB",
"U c #FDEBB2",
"Y c #FEEEBC",
"T c #FEF0BF",
"R c #FCEDC1",
"E c #FEF1C5",
"W c #FEF3CA",
"Q c #f701eb",
/* pixels */
"QQQQQQQQQQQQQQQQQQQQQQQQQQQQQQQQQQQQQQQQQQQQQQQQQQQQQQQQQQQQQQQQ",
"QQQQQQQQQQQQQQQQQQQQQQQQQQQQQQQQQQQQQQQQQQQQQQQQQQQQQQQQQQQQQQQQ",
"QQQQQQQQQQQQQQQQQQQQQQQQQQQQQQQQQQQQQQQQQQQQQQQQQQQQQQQQQQQQQQQQ",
"QQQQQQQQQQQQQQQQQQQQQQQQQQQQQQQQQQQQQQQQQQQQQQQQQQQQQQQQQQQQQQQQ",
"QQQQQQQQQQQQQQQQQQQQQQQQQQQQQQQQQQQQQQQQQQQQQQQQQQQQQQQQQQQQQQQQ",
"QQQQQQQQQQQQQQQQQQQQQQQQQQQQQQQQQQQQQQQQQQQQQQQQQQQQQQQQQQQQQQQQ",
"QQQQQQQQQQQQQQQQQQQQQQQQQQQQQQQQQQQQQQQQQQQQQQQQQQQQQQQQQQQQQQQQ",
"QQQQQQQQQQQQQQQQQQQQQQQQQQQQQQQQQQQQQQQQQQQQQQQQQQQQQQQQQQQQQQQQ",
"QQQQQQQQQQQQQQQQQQQQQQQQQQQQQQQQQQQQQQQQQQQQQQQQQQQQQQQQQQQQQQQQ",
"QQQQQQQQQQQQQQQQQQQQQQQQQQQQQQQQQQQQQQQQQQQQQQQQQQQQQQQQQQQQQQQQ",
"QQQQQQQQQQQQQQQQQQQQQQQQQQQQQQQQQQQQQQQQQQQQQQQQQQQQQQQQQQQQQQQQ",
"QQQQQQQQQQQQQQQQQQQQQQQQQQQQQQQQQQQQQQQQQQQQQQQQQQQQQQQQQQQQQQQQ",
"QQQQQQQQQQQQQQQQQQQQQQQQQQQQQQQQQQQQQQQQQQQQQQQQQQQQQQQQQQQQQQQQ",
"QQQQQQQQQQQQQQQQQQQQQQQQQQQQQQQQQQQQQQQQQQQQQQQQQQQQQQQQQQQQQQQQ",
"QQQQQQQQQQQQQQQQQQQQQQQQQQQQQQQQQQQQQQQQQQQQQQQQQQQQQQQQQQQQQQQQ",
"QQQQQQQQQQQQQQQQQQQQQQQQQQQQQQQQQQQQQQQQQQQQQQQQQQQQQQQQQQQQQQQQ",
"QQQQQQQQQQQQQQQQQQQQQQQQQQ           .QQQQQQQQQQQQQQQQQQQQQQQQQQ",
"QQQQQQQQQQQQQQQQQQQQQQQQQQOXX XX.X.XXXQQQQQQQQQQQQQQQQQQQQQQQQQQ",
"QQQQQQQQQQQQQQQQQQQQQQQQ.XcAGAGVAGGVVA#:QQQQQQQQQQQQQQQQQQQQQQQQ",
"QQQQQQQQQQQQQQQQQQQQQQQQ$&cVVVVVVVVVCF15QQQQQQQQQQQQQQQQQQQQQQQQ",
"QQQQQQQQQQQQQQQQQQQQQQo lGaaaiaapiapMGHb. QQQQQQQQQQQQQQQQQQQQQQ",
"QQQQQQQQQQQQQQQQQQQQQQo lGdaiiiiiiiiVGCZ  QQQQQQQQQQQQQQQQQQQQQQ",
"QQQQQQQQQQQQQQQQQQQQ0:xvhaMVVVVVVVVVURHGvb0-QQQQQQQQQQQQQQQQQQQQ",
"QQQQQQQQQQQQQQQQQQQQ: VGfaVGHGGHGGCCYWGGGG& QQQQQQQQQQQQQQQQQQQQ",
"QQQQQQQQQQQQQQQQQQQQ;.AGdaVHEWEEHGGCYEHCGG&XQQQQQQQQQQQQQQQQQQQQ",
"QQQQQQQQQQQQQQQQQQQQ71NVhdVHWWTTAVGGUYKHCG91QQQQQQQQQQQQQQQQQQQQ",
"QQQQQQQQQQQQQQQQQQ  cGaiBGCGEWKSaaGGCGEEGGGFX=QQQQQQQQQQQQQQQQQQ",
"QQQQQQQQQQQQQQQQQQ  xGaimCCHWWKSadGGCCEEGGCC.=QQQQQQQQQQQQQQQQQQ",
"QQQQQQQQQQQQQQQQQQ  cGaiPRTEEWKGMGYTKGEEHGCCX=QQQQQQQQQQQQQQQQQQ",
"QQQQQQQQQQQQQQQQQQ  cGaiIWEEWEKCGHEEJGEEGGGVX=QQQQQQQQQQQQQQQQQQ",
"QQQQQQQQQQQQQQQQQQ  cGaiIWJHHGGGGCHHdaYEGGda.=QQQQQQQQQQQQQQQQQQ",
"QQQQQQQQQQQQQQQQQQ  cCaiIWHCCGGGGGGGdaYEGGai.=QQQQQQQQQQQQQQQQQQ",
"QQQQQQQQQQQQQQQQQQ  cGiiIWHGCGGGGCGGdaREGGap.=QQQQQQQQQQQQQQQQQQ",
"QQQQQQQQQQQQQQQQQQ  cGaiPWHGGGCCGGGGdaYEGGfi =QQQQQQQQQQQQQQQQQQ",
"QQQQQQQQQQQQQQQQQQ  cGaiAJddCGCGfaddaaREGGiu.=QQQQQQQQQQQQQQQQQQ",
"QQQQQQQQQQQQQQQQQQ  cGaiBGdaGHGGiiiaaiREGGfi.=QQQQQQQQQQQQQQQQQQ",
"QQQQQQQQQQQQQQQQQQ  cGpiBGGGEWLCaaVCSGEEGGdp.=QQQQQQQQQQQQQQQQQQ",
"QQQQQQQQQQQQQQQQQQ  cGppBGGHWWLGaaSGCGERGGfi.=QQQQQQQQQQQQQQQQQQ",
"QQQQQQQQQQQQQQQQQQQQq4nmjfVGLLkfaaGGIULKff4<QQQQQQQQQQQQQQQQQQQQ",
"QQQQQQQQQQQQQQQQQQQQ: AGfiVGGGdiaaCCTWHSai+oQQQQQQQQQQQQQQQQQQQQ",
"QQQQQQQQQQQQQQQQQQQQ=.AGdaVGCGVVVCCCYWHGai+.QQQQQQQQQQQQQQQQQQQQ",
"QQQQQQQQQQQQQQQQQQQQ:%ZFgiAHHGGHHGGHUEHBuu&oQQQQQQQQQQQQQQQQQQQQ",
"QQQQQQQQQQQQQQQQQQQQQQ%XlVYWEEEWEWEEKGte..QQQQQQQQQQQQQQQQQQQQQQ",
"QQQQQQQQQQQQQQQQQQQQQQo lHRWWWWWWWWWKCtw  QQQQQQQQQQQQQQQQQQQQQQ",
"QQQQQQQQQQQQQQQQQQQQQQQQ93DLLLLKLLLKsy>2QQQQQQQQQQQQQQQQQQQQQQQQ",
"QQQQQQQQQQQQQQQQQQQQQQQQ  vGGGGGGGGGyr.=QQQQQQQQQQQQQQQQQQQQQQQQ",
"QQQQQQQQQQQQQQQQQQQQQQQQQQ6#########O@QQQQQQQQQQQQQQQQQQQQQQQQQQ",
"QQQQQQQQQQQQQQQQQQQQQQQQQQ=           QQQQQQQQQQQQQQQQQQQQQQQQQQ",
"QQQQQQQQQQQQQQQQQQQQQQQQQQQQQQQQQQQQQQQQQQQQQQQQQQQQQQQQQQQQQQQQ",
"QQQQQQQQQQQQQQQQQQQQQQQQQQQQQQQQQQQQQQQQQQQQQQQQQQQQQQQQQQQQQQQQ",
"QQQQQQQQQQQQQQQQQQQQQQQQQQQQQQQQQQQQQQQQQQQQQQQQQQQQQQQQQQQQQQQQ",
"QQQQQQQQQQQQQQQQQQQQQQQQQQQQQQQQQQQQQQQQQQQQQQQQQQQQQQQQQQQQQQQQ",
"QQQQQQQQQQQQQQQQQQQQQQQQQQQQQQQQQQQQQQQQQQQQQQQQQQQQQQQQQQQQQQQQ",
"QQQQQQQQQQQQQQQQQQQQQQQQQQQQQQQQQQQQQQQQQQQQQQQQQQQQQQQQQQQQQQQQ",
"QQQQQQQQQQQQQQQQQQQQQQQQQQQQQQQQQQQQQQQQQQQQQQQQQQQQQQQQQQQQQQQQ",
"QQQQQQQQQQQQQQQQQQQQQQQQQQQQQQQQQQQQQQQQQQQQQQQQQQQQQQQQQQQQQQQQ",
"QQQQQQQQQQQQQQQQQQQQQQQQQQQQQQQQQQQQQQQQQQQQQQQQQQQQQQQQQQQQQQQQ",
"QQQQQQQQQQQQQQQQQQQQQQQQQQQQQQQQQQQQQQQQQQQQQQQQQQQQQQQQQQQQQQQQ",
"QQQQQQQQQQQQQQQQQQQQQQQQQQQQQQQQQQQQQQQQQQQQQQQQQQQQQQQQQQQQQQQQ",
"QQQQQQQQQQQQQQQQQQQQQQQQQQQQQQQQQQQQQQQQQQQQQQQQQQQQQQQQQQQQQQQQ",
"QQQQQQQQQQQQQQQQQQQQQQQQQQQQQQQQQQQQQQQQQQQQQQQQQQQQQQQQQQQQQQQQ",
"QQQQQQQQQQQQQQQQQQQQQQQQQQQQQQQQQQQQQQQQQQQQQQQQQQQQQQQQQQQQQQQQ",
"QQQQQQQQQQQQQQQQQQQQQQQQQQQQQQQQQQQQQQQQQQQQQQQQQQQQQQQQQQQQQQQQ",
"QQQQQQQQQQQQQQQQQQQQQQQQQQQQQQQQQQQQQQQQQQQQQQQQQQQQQQQQQQQQQQQQ"
};
