/* XPM */
static char *_963_2902f63e057c8b5c205981a1ad7a74dd6b84d91c9880105f5aa2de8cce78df4e[] = {
/* columns rows colors chars-per-pixel */
"64 64 69 1 ",
"  c #020101",
". c #0B0804",
"X c #0C0C0C",
"o c #130F0A",
"O c #171107",
"+ c #181207",
"@ c #151009",
"# c #1C1608",
"$ c #1F1809",
"% c #121212",
"& c #1C1C1C",
"* c #221B0D",
"= c #2B210D",
"- c #2D2111",
"; c #2B2518",
": c #372C12",
"> c #3D2E12",
", c #332B1A",
"< c #252525",
"1 c #2B2721",
"2 c #3A3120",
"3 c #41310F",
"4 c #413214",
"5 c #453618",
"6 c #DA7600",
"7 c #DB7A00",
"8 c #DE8201",
"9 c #E08403",
"0 c #E38C0E",
"q c #E48E12",
"w c #C39631",
"e c #C29832",
"r c #CE9F37",
"t c #C79A38",
"y c #CFA139",
"u c #D9A435",
"i c #D5A339",
"p c #D9A638",
"a c #E2B137",
"s c #E4B13B",
"d c #EAB53B",
"f c #EFBA3E",
"g c #F6B133",
"h c #F9B435",
"j c #F3BC3E",
"k c #FBBC3C",
"l c #FEC23E",
"z c #DCAA41",
"x c #F4BC40",
"c c #FABE44",
"v c #FFC342",
"b c #FFC64C",
"n c #FFC94F",
"m c #FEC652",
"M c #FFCA56",
"N c #FFCA59",
"B c #FFCE64",
"V c #FFD061",
"C c #FFD16D",
"Z c #FEE6A5",
"A c #FFE7AA",
"S c #FFE9AB",
"D c #FEEBB5",
"F c #FEEDBC",
"G c #FDF0BD",
"H c #FEEFC0",
"J c #FEF2C4",
"K c #FEF3CA",
"L c #f701eb",
/* pixels */
"LLLLLLLLLLLLLLLLLLLLLLLLLLLLLLLLLLLLLLLLLLLLLLLLLLLLLLLLLLLLLLLL",
"LLLLLLLLLLLLLLLLLLLLLLLLLLLLLLLLLLLLLLLLLLLLLLLLLLLLLLLLLLLLLLLL",
"LLLLLLLLLLLLLLLLLLLLLLLLLLLLLLLLLLLLLLLLLLLLLLLLLLLLLLLLLLLLLLLL",
"LLLLLLLLLLLLLLLLLLLLLLLLLLLLLLLLLLLLLLLLLLLLLLLLLLLLLLLLLLLLLLLL",
"LLLLLLLLLLLLLLLLLLLLLLLLLLLLLLLLLLLLLLLLLLLLLLLLLLLLLLLLLLLLLLLL",
"LLLLLLLLLLLLLLLLLLLLLLLLLLLLLLLLLLLLLLLLLLLLLLLLLLLLLLLLLLLLLLLL",
"LLLLLLLLLLLLLLLLLLLLLLLLLLLLLLLLLLLLLLLLLLLLLLLLLLLLLLLLLLLLLLLL",
"LLLLLLLLLLLLLLLLLLLLLLLLLLLLLLLLLLLLLLLLLLLLLLLLLLLLLLLLLLLLLLLL",
"LLLLLLLLLLLLLLLLLLLLLLLLLLLLLLLLLLLLLLLLLLLLLLLLLLLLLLLLLLLLLLLL",
"LLLLLLLLLLLLLLLLLLLLLLLLLLLLLLLLLLLLLLLLLLLLLLLLLLLLLLLLLLLLLLLL",
"LLLLLLLLLLLLLLLLLLLLLLLLLLLLLLLLLLLLLLLLLLLLLLLLLLLLLLLLLLLLLLLL",
"LLLLLLLLLLLLLLLLLLLLLLLLLLLLLLLLLLLLLLLLLLLLLLLLLLLLLLLLLLLLLLLL",
"LLLLLLLLLLLLLLLLLLLLLLLLLLLLLLLLLLLLLLLLLLLLLLLLLLLLLLLLLLLLLLLL",
"LLLLLLLLLLLLLLLLLLLLLLLLLLLLLLLLLLLLLLLLLLLLLLLLLLLLLLLLLLLLLLLL",
"LLLLLLLLLLLLLLLLLLLLLLLLLLLLLLLLLLLLLLLLLLLLLLLLLLLLLLLLLLLLLLLL",
"LLLLLLLLLLLLLLLLLLLLLLLLLL            LLLLLLLLLLLLLLLLLLLLLLLLLL",
"LLLLLLLLLLLLLLLLLLLLLLLLLL            LLLLLLLLLLLLLLLLLLLLLLLLLL",
"LLLLLLLLLLLLLLLLLLLLLL&XX;eewwwewwweee*XX<LLLLLLLLLLLLLLLLLLLLLL",
"LLLLLLLLLLLLLLLLLLLLLLX  *vvvvvvvvvvvv+  &LLLLLLLLLLLLLLLLLLLLLL",
"LLLLLLLLLLLLLLLLLLLL  rppu898999989998uppt  LLLLLLLLLLLLLLLLLLLL",
"LLLLLLLLLLLLLLLLLLLL  xvvk666666666666lvvs  LLLLLLLLLLLLLLLLLLLL",
"LLLLLLLLLLLLLLLLLL&,sslv89khkkkkkkkkkk88vlss1<LLLLLLLLLLLLLLLLLL",
"LLLLLLLLLLLLLLLLLL $vvvc69vvvvvvvvvvvl76cvvvoXLLLLLLLLLLLLLLLLLL",
"LLLLLLLLLLLLLLLLLL.$vlq0ghvvZSSSSSvvvvhgAZvvoXLLLLLLLLLLLLLLLLLL",
"LLLLLLLLLLLLLLLLLLX#vv77vvlvJKKKKJbvvvvvKFvvoXLLLLLLLLLLLLLLLLLL",
"LLLLLLLLLLLLLLLL @ii99hkvvvvJJNNNN90vvvvNBDDzy ;LLLLLLLLLLLLLLLL",
"LLLLLLLLLLLLLLLL .vk66kvvvvbJHvvvl77vvlvvbKKbx &LLLLLLLLLLLLLLLL",
"LLLLLLLLLLLLLLLL .kk67lvFFFFKHvvlvkcFFmvvbKKbj &LLLLLLLLLLLLLLLL",
"LLLLLLLLLLLLLLLL .kj66kbKKKKKJvvlvvnKKnvvbKKbx &LLLLLLLLLLLLLLLL",
"LLLLLLLLLLLLLLLL .kk67kbKFBBBBlvvvvvVCq0vmKKbk &LLLLLLLLLLLLLLLL",
"LLLLLLLLLLLLLLLL .kk66lbJFlvlvvvvvvvvv77vbKJbj.&LLLLLLLLLLLLLLLL",
"LLLLLLLLLLLLLLLL .kk77lbKFlvlvvlvlvvvv78vbKKbj &LLLLLLLLLLLLLLLL",
"LLLLLLLLLLLLLLLL .jk67kbKFvvvvvlvvvvvv77vbKKbx.&LLLLLLLLLLLLLLLL",
"LLLLLLLLLLLLLLLL .kk67kvbc78kvvvlv887877vbKKbx &LLLLLLLLLLLLLLLL",
"LLLLLLLLLLLLLLLL .lk67cvlk66llvvlv676666vbKKbj &LLLLLLLLLLLLLLLL",
"LLLLLLLLLLLLLLLL .lk67vvlvggZZvvvv77ggggvnKKbj &LLLLLLLLLLLLLLLL",
"LLLLLLLLLLLLLLLL .vk66kvvvvvJJvvvv77vvvvvmKKnj &LLLLLLLLLLLLLLLL",
"LLLLLLLLLLLLLLLLLL->ch99lvvvNm999977vlvvDSMN:,LLLLLLLLLLLLLLLLLL",
"LLLLLLLLLLLLLLLLLL.#vv77cvvvvk666779vlvbJFvv+XLLLLLLLLLLLLLLLLLL",
"LLLLLLLLLLLLLLLLLL.#vvlvFDlvvvlkkkkkvvDGmblvoXLLLLLLLLLLLLLLLLLL",
"LLLLLLLLLLLLLLLLLL *vvvbKGllvvvlvvvvvvJJvvvv+XLLLLLLLLLLLLLLLLLL",
"LLLLLLLLLLLLLLLLLLLL>5jvVCSSASSSSSSSSSCBvd>>LLLLLLLLLLLLLLLLLLLL",
"LLLLLLLLLLLLLLLLLLLL  fvvNKKKKKKKKKKKKnvbd  LLLLLLLLLLLLLLLLLLLL",
"LLLLLLLLLLLLLLLLLLLLLL,==5NNNNNNNNNNNN>==2LLLLLLLLLLLLLLLLLLLLLL",
"LLLLLLLLLLLLLLLLLLLLLL%  *vvvvvvvvvvvv+  &LLLLLLLLLLLLLLLLLLLLLL",
"LLLLLLLLLLLLLLLLLLLLLLLLLL+++O++++++++LLLLLLLLLLLLLLLLLLLLLLLLLL",
"LLLLLLLLLLLLLLLLLLLLLLLLLL            LLLLLLLLLLLLLLLLLLLLLLLLLL",
"LLLLLLLLLLLLLLLLLLLLLLLLLLLLLLLLLLLLLLLLLLLLLLLLLLLLLLLLLLLLLLLL",
"LLLLLLLLLLLLLLLLLLLLLLLLLLLLLLLLLLLLLLLLLLLLLLLLLLLLLLLLLLLLLLLL",
"LLLLLLLLLLLLLLLLLLLLLLLLLLLLLLLLLLLLLLLLLLLLLLLLLLLLLLLLLLLLLLLL",
"LLLLLLLLLLLLLLLLLLLLLLLLLLLLLLLLLLLLLLLLLLLLLLLLLLLLLLLLLLLLLLLL",
"LLLLLLLLLLLLLLLLLLLLLLLLLLLLLLLLLLLLLLLLLLLLLLLLLLLLLLLLLLLLLLLL",
"LLLLLLLLLLLLLLLLLLLLLLLLLLLLLLLLLLLLLLLLLLLLLLLLLLLLLLLLLLLLLLLL",
"LLLLLLLLLLLLLLLLLLLLLLLLLLLLLLLLLLLLLLLLLLLLLLLLLLLLLLLLLLLLLLLL",
"LLLLLLLLLLLLLLLLLLLLLLLLLLLLLLLLLLLLLLLLLLLLLLLLLLLLLLLLLLLLLLLL",
"LLLLLLLLLLLLLLLLLLLLLLLLLLLLLLLLLLLLLLLLLLLLLLLLLLLLLLLLLLLLLLLL",
"LLLLLLLLLLLLLLLLLLLLLLLLLLLLLLLLLLLLLLLLLLLLLLLLLLLLLLLLLLLLLLLL",
"LLLLLLLLLLLLLLLLLLLLLLLLLLLLLLLLLLLLLLLLLLLLLLLLLLLLLLLLLLLLLLLL",
"LLLLLLLLLLLLLLLLLLLLLLLLLLLLLLLLLLLLLLLLLLLLLLLLLLLLLLLLLLLLLLLL",
"LLLLLLLLLLLLLLLLLLLLLLLLLLLLLLLLLLLLLLLLLLLLLLLLLLLLLLLLLLLLLLLL",
"LLLLLLLLLLLLLLLLLLLLLLLLLLLLLLLLLLLLLLLLLLLLLLLLLLLLLLLLLLLLLLLL",
"LLLLLLLLLLLLLLLLLLLLLLLLLLLLLLLLLLLLLLLLLLLLLLLLLLLLLLLLLLLLLLLL",
"LLLLLLLLLLLLLLLLLLLLLLLLLLLLLLLLLLLLLLLLLLLLLLLLLLLLLLLLLLLLLLLL",
"LLLLLLLLLLLLLLLLLLLLLLLLLLLLLLLLLLLLLLLLLLLLLLLLLLLLLLLLLLLLLLLL"
};
