/* XPM */
static char *_2474_6bb619443d7d5ade6c99a87ea910a3a3986cef269a8099b01b2a42c5e49381ff[] = {
/* columns rows colors chars-per-pixel */
"64 64 85 1 ",
"  c black",
". c #000101",
"X c #010101",
"o c #020100",
"O c #020101",
"+ c #020201",
"@ c #010102",
"# c #020102",
"$ c #020103",
"% c #030103",
"& c #010203",
"* c #020202",
"= c gray1",
"- c #050401",
"; c #030204",
": c #030304",
"> c #040304",
", c #030404",
"< c #040404",
"1 c #050404",
"2 c #040504",
"3 c #040405",
"4 c #050405",
"5 c #050506",
"6 c #040407",
"7 c #080502",
"8 c #0F0703",
"9 c #0B0704",
"0 c #0A0803",
"q c #0B0804",
"w c gray5",
"e c #100803",
"r c #120902",
"t c #110904",
"y c gray9",
"u c #2F2F2F",
"i c #502604",
"p c #522605",
"a c #522706",
"s c #613505",
"d c #623605",
"f c #613506",
"g c #6D561E",
"h c #6E561F",
"j c #6F561F",
"k c #6E571F",
"l c #6F5721",
"z c #9F4B03",
"x c #9F4C01",
"c c #A24C00",
"v c #B35500",
"b c #B35600",
"n c #B35601",
"m c #B45600",
"M c #B45700",
"N c #B55700",
"B c #B55601",
"V c #BF6800",
"C c #C16A00",
"Z c #C16C00",
"A c #D97700",
"S c #DA7700",
"D c #D97800",
"F c #DA7800",
"G c #DB7800",
"H c #DB7A00",
"J c #DC7900",
"K c #DAA93A",
"L c #E0A939",
"P c #E0AD3A",
"I c #E0AC3B",
"U c #E1AC3B",
"Y c #F8BE3F",
"T c #FABE3F",
"R c #FFC03F",
"E c #FFC33F",
"W c #F9BF41",
"Q c #FFC040",
"! c #FEC140",
"~ c #FEC240",
"^ c #FFC340",
"/ c #FFC241",
"( c #FFC341",
") c #FFC242",
"_ c #f701eb",
/* pixels */
"________________________________________________________________",
"________________________________________________________________",
"________________________________________________________________",
"________________________________________________________________",
"________________________________________________________________",
"________________________________________________________________",
"________________________________________________________________",
"________________________________________________________________",
"________________________________________________________________",
"________________________________________________________________",
"________________________________________________________________",
"________________________________________________________________",
"________________________________________________________________",
"________________________________________________________________",
"________________________________________________________________",
"________________________________________________________________",
"___________________________X       =____________________________",
"___________________________XX-09q9@<____________________________",
"___________________________yXgYWTK%<____________________________",
"___________________________uXl~^(P$5____________________________",
"___________________________w jE/)U@<____________________________",
"___________________________X jE/)U@<____________________________",
"___________________________XXjE/)U@<____________________________",
"___________________________* jE/)U@<____________________________",
"___________________________  jE/)U@>____________________________",
"___________________________  jE/)U@>____________________________",
"___________________________X jE/)U@>____________________________",
"___________________________XXjE/)U@>____________________________",
"___________________________X k^((I.1____________________________",
"___________________________X hR!QLX2____________________________",
"___________________________XXdJHHZ#>____________________________",
"___________________________XXsGFGC#>____________________________",
"___________________________  sFFSCO>____________________________",
"___________________________  sFFSCO>____________________________",
"___________________________  sFFSC#>____________________________",
"___________________________XXsFFSC#>____________________________",
"___________________________X sFFSC#3____________________________",
"___________________________X sFFSCO3____________________________",
"___________________________X sFFSCO3____________________________",
"___________________________XXsFFSCO>____________________________",
"___________________________XXsFFSC+>____________________________",
"___________________________  fADAV*,____________________________",
"___________________________  pmNBc&:____________________________",
"___________________________XXivnbzo4____________________________",
"___________________________*Xivnbzo4____________________________",
"___________________________X anMmx;4____________________________",
"___________________________X 7rte8@6____________________________",
"___________________________        =____________________________",
"________________________________________________________________",
"________________________________________________________________",
"________________________________________________________________",
"________________________________________________________________",
"________________________________________________________________",
"________________________________________________________________",
"________________________________________________________________",
"________________________________________________________________",
"________________________________________________________________",
"________________________________________________________________",
"________________________________________________________________",
"________________________________________________________________",
"________________________________________________________________",
"________________________________________________________________",
"________________________________________________________________",
"________________________________________________________________"
};
