/* XPM */
static char *_0ad2f21a0954ad4a781988fd9ec0bbc9x2EaY7UgZkL1BMu[] = {
/* columns rows colors chars-per-pixel */
"64 64 114 2 ",
"   c #f701eb",
".  c #003DA2",
"X  c #0039AA",
"o  c #0043A6",
"O  c #0046A8",
"+  c #004DAC",
"@  c #0057A5",
"#  c #0050AC",
"$  c #0049B1",
"%  c #0655B2",
"&  c #0A59B4",
"*  c #125FB6",
"=  c #1263BA",
"-  c #1C6BBF",
";  c #0050C9",
":  c #005BCD",
">  c #005DD2",
",  c #005DDB",
"<  c #0064D5",
"1  c #0063DE",
"2  c #006ADB",
"3  c #0071DD",
"4  c #1678D7",
"5  c #2576C5",
"6  c #2578C3",
"7  c #2870CD",
"8  c #2B7BC9",
"9  c #0046E1",
"0  c #005DE0",
"q  c #0066E5",
"w  c #006BE3",
"e  c #0067E9",
"r  c #0074E5",
"t  c #007CE9",
"y  c #007DF2",
"u  c #0072FF",
"i  c #3383CE",
"p  c #3686D0",
"a  c #0084ED",
"s  c #008DF4",
"d  c #008FFE",
"f  c #0091F5",
"g  c #0093FC",
"h  c #009CFD",
"j  c #179CF5",
"k  c #00A2FF",
"l  c #1CA7FC",
"z  c #24A3F7",
"x  c #2DA6F4",
"c  c #4191D7",
"v  c #4393D9",
"b  c #4A9BDC",
"n  c #5592DE",
"m  c #53A0DF",
"M  c #5D98E2",
"N  c #609CEA",
"B  c #4BA9EC",
"V  c #54A5E4",
"C  c #56A8E5",
"Z  c #5AABE6",
"A  c #5BADE8",
"S  c #49B1F3",
"D  c #54B5F3",
"F  c #5EBCF5",
"G  c #63A0EB",
"H  c #62B3EC",
"J  c #6FA8F1",
"K  c #71AAF3",
"L  c #6BBDF2",
"P  c #79C4F5",
"I  c #74C6F9",
"U  c #73C9FA",
"Y  c #7BCEFC",
"T  c #7DD1FE",
"R  c #8CC9F0",
"E  c #97CEF2",
"W  c #83D6FF",
"Q  c #83D8FE",
"!  c #8BDFFF",
"~  c #8ADEFF",
"^  c #89DDFF",
"/  c #88DCFF",
"(  c #93D1F3",
")  c #9BD1F3",
"_  c #A4D4F3",
"`  c #A5D7F4",
"'  c #BAD2F0",
"]  c #8DE1FF",
"[  c #8EE1FF",
"{  c #92E6FF",
"}  c #99EDFF",
"|  c #BDE1F5",
" . c #BBE3F9",
".. c #BBE4F9",
"X. c #BCE4F9",
"o. c #BDE4F9",
"O. c #BEE5FA",
"+. c #C5E4F6",
"@. c #CAE6F5",
"#. c #C4E7F9",
"$. c #C5E8F9",
"%. c #C5E8FA",
"&. c #C6E9FA",
"*. c #C8EAFA",
"=. c #D1EAF7",
"-. c #D7EEF7",
";. c #D3EEFA",
":. c #D5EFFA",
">. c #D4EFFB",
",. c #DAF0F8",
"<. c #DAF0F9",
"1. c #DFF6FC",
"2. c #E3F2F6",
"3. c #E2F3F8",
/* pixels */
"                                                                                                                                ",
"                                                                                                                                ",
"                                                                                                                                ",
"                                                                                                                                ",
"                                                                                                                                ",
"                                                                                                                                ",
"                                                                                                                                ",
"                                                                                                                                ",
"                                                                                                                                ",
"                                                                                                                                ",
"                                                                                                                                ",
"                                                                                                                                ",
"                                                                                                                                ",
"                                                                                                                                ",
"                                                                                                                                ",
"                                                                                                                                ",
"                                                                                                                                ",
"                                                                                                                                ",
"                                                                                                                                ",
"                                                                                                                                ",
"                                                                                                                                ",
"                                                                                                                                ",
"                                                                                                                                ",
"                                                                                                                                ",
"                                                                                                                                ",
"                                                                                                                                ",
"                                                                                                                                ",
"                                          < h k h h g h h g h d B j g h h h g h f h k a                                         ",
"                                        > , t k h h k k h k h z 3.P g h h k h k k k h q ,                                       ",
"                                        1 q , s k h h h h h h ) 1.=.x d h h h h k k 3 , q                                       ",
"                                      > q 1 , 1 k k h h h d D 1. .>._ h h h h h k a , 1 q 2                                     ",
"                                      q q 1 q , a k h k h j ' *. .O.1.H g k h k h 1 , 1 1 3 9                                   ",
"                                    < q q 1 q 1 < f k h g R :. .X. .$.+.z g k k r , q q 1 q 1                                   ",
"                                    q q 1 1 1 1 , q k h S -.O... .O...;.E g k s , 1 1 1 1 1 q <                                 ",
"                                  q e q w q q q e 0 y l @.:.#.$.$.$.$.#.3.F g w q q q q q q e e                                 ",
"                                  : : : : : : : : : ; H ` R R R R R R R E ( 4 ; : : : : : : : : :                               ",
"                                  + + + + + + + O O o m Q U U U U U U U Y U * o + + + + + O + +                                 ",
"                                    + + + + + + + + . i ~ Y Y Y Y Y Y Y / A o + # + + + # + +                                   ",
"                                      # # + + + # + o & U Q Y Y Y Y Y Y ^ i . # + + + # + +                                     ",
"                                        # # $ + + + # o Z ^ Y Y Y Y Y T T = o + # # $ # $ O                                     ",
"                                          + + + + + $ o i ^ Y Y Y Y Y / H O O + + + + + #                                       ",
"                                            + + + # # o = T T Y Y Y Y ^ c . + + + % + +                                         ",
"                                              $ # + + + o H ^ Y Y Y T W 5 . # $ + + $                                           ",
"                                              @ $ + + + . c ^ T Y Y Q L # O + # $ #                                             ",
"                                                $ + # # . - W Y Y Y ~ b . + + + $                                               ",
"                                                  $ $ # O + L Q Y Y / 8 . + + #                                                 ",
"                                                    + + + . b ^ Y Q I & O + +                                                   ",
"                                                      @ $ . 5 / T ~ C O + + $                                                   ",
"                                                        @ O % I W [ i . + +                                                     ",
"                                                          O O V { Y = o +                                                       ",
"                                                            . i } H O +                                                         ",
"                                                            o * / v X                                                           ",
"                                                              + H 6                                                             ",
"                                                    '           7                                                               ",
"                                                ' ' ' ' ' '               ' ' ' ' '                                             ",
"                                              k k k k k ' ' ' ' ' ' ' ' ' ' k k k k k                                           ",
"                                          k k k h k k k h k k k k k k k k k k k k k k h k                                       ",
"                                        k k k s s s u u u w q s k k k k h k q s s s s k k k                                     ",
"                                  M G J u u u u u u u u u u u u u u u u u u u u e u q q k k G M                                 ",
"                                  G q q q u u u u u u u w u u u u w q q q e w u w q e u q q q w                                 ",
"                                  M G J e w e q w q q e e q q q q e e q q q q e q w e q w q G M                                 ",
"                                        n M G q e q w q q e e q q q q e q e e w e q q e e q                                     ",
"                                            N K K e e q q w q e e w q w q e q q K K N                                           ",
"                                                                                                                                "
};
