/* XPM */
static char *_9c7feb3e6014349d8d9d68e884e3f52vB98nKpc7Mm8dUGZ[] = {
/* columns rows colors chars-per-pixel */
"64 64 4 1 ",
"  c #030312",
". c #4A4A53",
"X c #79069A",
"o c #DB45E0",
/* pixels */
"                                                                ",
"                                                                ",
"                                                                ",
"                                                                ",
"                                                                ",
"   XXXXXXXXXXXXXXXXXXXXXXXXXXXXXXXXXXXXXXXXXXXXXXXXXXXXXXXXXX   ",
"   ..........................................................   ",
"   ...oooo..oooo..oooo..oooo..oooo..oooo..oooo..oooo..oooo...   ",
"   ...o.....o.....o.....o.....o.....o.....o.....o.....o......   ",
"   ...ooo...ooo...ooo...ooo...ooo...ooo...ooo...ooo...ooo....   ",
"   ...o.....o.....o.....o.....o.....o.....o.....o.....o......   ",
"   ...oooo..oooo..oooo..oooo..oooo..oooo..oooo..oooo..oooo...   ",
"   ..........................................................   ",
"   XXXXXXXXXXXXXXXXXXXXXXXXXXXXXXXXXXXXXXXXXXXXXXXXXXXXXXXXXX   ",
"   ..........................................................   ",
"   ...oooo..oooo..oooo..oooo..oooo..oooo..oooo..oooo..oooo...   ",
"   ...o.....o.....o.....o.....o.....o.....o.....o.....o......   ",
"   ...ooo...ooo...ooo...ooo...ooo...ooo...ooo...ooo...ooo....   ",
"   ...o.....o.....o.....o.....o.....o.....o.....o.....o......   ",
"   ...oooo..oooo..oooo..oooo..oooo..oooo..oooo..oooo..oooo...   ",
"   ..........................................................   ",
"   XXXXXXXXXXXXXXXXXXXXXXXXXXXXXXXXXXXXXXXXXXXXXXXXXXXXXXXXXX   ",
"   ..........................................................   ",
"   ...oooo..oooo..oooo..oooo..oooo..oooo..oooo..oooo..oooo...   ",
"   ...o.....o.....o.....o.....o.....o.....o.....o.....o......   ",
"   ...ooo...ooo...ooo...ooo...ooo...ooo...ooo...ooo...ooo....   ",
"   ...o.....o.....o.....o.....o.....o.....o.....o.....o......   ",
"   ...oooo..oooo..oooo..oooo..oooo..oooo..oooo..oooo..oooo...   ",
"   ..........................................................   ",
"                                                                ",
"   oooooooooooooooooooooooooooooooooooooooooooooooooooooooooo   ",
"    o o o o o o o o o o o o o o o o o o o o o o o o o o o o o   ",
"   o o o o o o o o o o o o o o o o o o o o o o o o o o o o o    ",
"   oooooooooooooooooooooooooooooooooooooooooooooooooooooooooo   ",
"                                                                ",
"   ..........................................................   ",
"   ...oooo..oooo..oooo..oooo..oooo..oooo..oooo..oooo..oooo...   ",
"   ...o.....o.....o.....o.....o.....o.....o.....o.....o......   ",
"   ...ooo...ooo...ooo...ooo...ooo...ooo...ooo...ooo...ooo....   ",
"   ...o.....o.....o.....o.....o.....o.....o.....o.....o......   ",
"   ...oooo..oooo..oooo..oooo..oooo..oooo..oooo..oooo..oooo...   ",
"   ..........................................................   ",
"   XXXXXXXXXXXXXXXXXXXXXXXXXXXXXXXXXXXXXXXXXXXXXXXXXXXXXXXXXX   ",
"   ..........................................................   ",
"   ...oooo..oooo..oooo..oooo..oooo..oooo..oooo..oooo..oooo...   ",
"   ...o.....o.....o.....o.....o.....o.....o.....o.....o......   ",
"   ...ooo...ooo...ooo...ooo...ooo...ooo...ooo...ooo...ooo....   ",
"   ...o.....o.....o.....o.....o.....o.....o.....o.....o......   ",
"   ...oooo..oooo..oooo..oooo..oooo..oooo..oooo..oooo..oooo...   ",
"   ..........................................................   ",
"   XXXXXXXXXXXXXXXXXXXXXXXXXXXXXXXXXXXXXXXXXXXXXXXXXXXXXXXXXX   ",
"   ..........................................................   ",
"   ...oooo..oooo..oooo..oooo..oooo..oooo..oooo..oooo..oooo...   ",
"   ...o.....o.....o.....o.....o.....o.....o.....o.....o......   ",
"   ...ooo...ooo...ooo...ooo...ooo...ooo...ooo...ooo...ooo....   ",
"   ...o.....o.....o.....o.....o.....o.....o.....o.....o......   ",
"   ...oooo..oooo..oooo..oooo..oooo..oooo..oooo..oooo..oooo...   ",
"   ..........................................................   ",
"   XXXXXXXXXXXXXXXXXXXXXXXXXXXXXXXXXXXXXXXXXXXXXXXXXXXXXXXXXX   ",
"                                                                ",
"                                                                ",
"                                                                ",
"                                                                ",
"                                                                "
};
