/* XPM */
static char *_501f9ffd3cd4d0ddde09aaab8031d92OYKUucRYDcFa97Hy[] = {
/* columns rows colors chars-per-pixel */
"64 64 4 1 ",
"  c #030312",
". c #4A4A53",
"X c #1E2B92",
"o c #69E2E1",
/* pixels */
"                                                                ",
"                                                                ",
"                                                                ",
"                                                                ",
"                                                                ",
"   XXXXXXXXXXXXXXXXXXXXXXXXXXXXXXXXXXXXXXXXXXXXXXXXXXXXXXXXXX   ",
"   ..........................................................   ",
"   ..o...o..o...o..o...o..o...o..o...o..o...o..o...o..o...o..   ",
"   ..oo..o..oo..o..oo..o..oo..o..oo..o..oo..o..oo..o..oo..o..   ",
"   ..o.o.o..o.o.o..o.o.o..o.o.o..o.o.o..o.o.o..o.o.o..o.o.o..   ",
"   ..o..oo..o..oo..o..oo..o..oo..o..oo..o..oo..o..oo..o..oo..   ",
"   ..o...o..o...o..o...o..o...o..o...o..o...o..o...o..o...o..   ",
"   ..........................................................   ",
"   XXXXXXXXXXXXXXXXXXXXXXXXXXXXXXXXXXXXXXXXXXXXXXXXXXXXXXXXXX   ",
"   ..........................................................   ",
"   ..o...o..o...o..o...o..o...o..o...o..o...o..o...o..o...o..   ",
"   ..oo..o..oo..o..oo..o..oo..o..oo..o..oo..o..oo..o..oo..o..   ",
"   ..o.o.o..o.o.o..o.o.o..o.o.o..o.o.o..o.o.o..o.o.o..o.o.o..   ",
"   ..o..oo..o..oo..o..oo..o..oo..o..oo..o..oo..o..oo..o..oo..   ",
"   ..o...o..o...o..o...o..o...o..o...o..o...o..o...o..o...o..   ",
"   ..........................................................   ",
"   XXXXXXXXXXXXXXXXXXXXXXXXXXXXXXXXXXXXXXXXXXXXXXXXXXXXXXXXXX   ",
"   ..........................................................   ",
"   ..o...o..o...o..o...o..o...o..o...o..o...o..o...o..o...o..   ",
"   ..oo..o..oo..o..oo..o..oo..o..oo..o..oo..o..oo..o..oo..o..   ",
"   ..o.o.o..o.o.o..o.o.o..o.o.o..o.o.o..o.o.o..o.o.o..o.o.o..   ",
"   ..o..oo..o..oo..o..oo..o..oo..o..oo..o..oo..o..oo..o..oo..   ",
"   ..o...o..o...o..o...o..o...o..o...o..o...o..o...o..o...o..   ",
"   ..........................................................   ",
"                                                                ",
"   oooooooooooooooooooooooooooooooooooooooooooooooooooooooooo   ",
"    o o o o o o o o o o o o o o o o o o o o o o o o o o o o o   ",
"   o o o o o o o o o o o o o o o o o o o o o o o o o o o o o    ",
"   oooooooooooooooooooooooooooooooooooooooooooooooooooooooooo   ",
"                                                                ",
"   ..........................................................   ",
"   ..o...o..o...o..o...o..o...o..o...o..o...o..o...o..o...o..   ",
"   ..oo..o..oo..o..oo..o..oo..o..oo..o..oo..o..oo..o..oo..o..   ",
"   ..o.o.o..o.o.o..o.o.o..o.o.o..o.o.o..o.o.o..o.o.o..o.o.o..   ",
"   ..o..oo..o..oo..o..oo..o..oo..o..oo..o..oo..o..oo..o..oo..   ",
"   ..o...o..o...o..o...o..o...o..o...o..o...o..o...o..o...o..   ",
"   ..........................................................   ",
"   XXXXXXXXXXXXXXXXXXXXXXXXXXXXXXXXXXXXXXXXXXXXXXXXXXXXXXXXXX   ",
"   ..........................................................   ",
"   ..o...o..o...o..o...o..o...o..o...o..o...o..o...o..o...o..   ",
"   ..oo..o..oo..o..oo..o..oo..o..oo..o..oo..o..oo..o..oo..o..   ",
"   ..o.o.o..o.o.o..o.o.o..o.o.o..o.o.o..o.o.o..o.o.o..o.o.o..   ",
"   ..o..oo..o..oo..o..oo..o..oo..o..oo..o..oo..o..oo..o..oo..   ",
"   ..o...o..o...o..o...o..o...o..o...o..o...o..o...o..o...o..   ",
"   ..........................................................   ",
"   XXXXXXXXXXXXXXXXXXXXXXXXXXXXXXXXXXXXXXXXXXXXXXXXXXXXXXXXXX   ",
"   ..........................................................   ",
"   ..o...o..o...o..o...o..o...o..o...o..o...o..o...o..o...o..   ",
"   ..oo..o..oo..o..oo..o..oo..o..oo..o..oo..o..oo..o..oo..o..   ",
"   ..o.o.o..o.o.o..o.o.o..o.o.o..o.o.o..o.o.o..o.o.o..o.o.o..   ",
"   ..o..oo..o..oo..o..oo..o..oo..o..oo..o..oo..o..oo..o..oo..   ",
"   ..o...o..o...o..o...o..o...o..o...o..o...o..o...o..o...o..   ",
"   ..........................................................   ",
"   XXXXXXXXXXXXXXXXXXXXXXXXXXXXXXXXXXXXXXXXXXXXXXXXXXXXXXXXXX   ",
"                                                                ",
"                                                                ",
"                                                                ",
"                                                                ",
"                                                                "
};
